<svg width="55" height="48" viewBox="0 0 55 48" fill="none" xmlns="http://www.w3.org/2000/svg">
<path d="M35.3039 4.8747V21.2909H18.9541V4.8747H35.3039ZM40.1588 0H14.0991V26.1656H40.1588V0Z" fill="#FFCF4E"/>
<path d="M18.9858 30.2847H0V15.0986H11.9289V23.2035H7.07396V19.9733H4.85496V25.41H14.1308V17.1087H18.9858V30.2847Z" fill="#FFCF4E"/>
<path d="M26.0409 47.7017H7.05518V32.5156H18.9841V40.619H14.1291V37.3903H11.9101V42.827H21.186V22.1669H26.0409V47.7017Z" fill="#FFCF4E"/>
<path d="M35.2969 30.2847H54.2812V15.0986H42.3523V23.2035H47.2072V19.9733H49.4262V25.41H40.1518V17.1087H35.2969V30.2847Z" fill="#FFCF4E"/>
<path d="M28.2417 47.7017H47.226V32.5156H35.2971V40.619H40.1521V37.3903H42.3711V42.827H33.0967V22.1669H28.2417V47.7017Z" fill="#FFCF4E"/>
</svg>
