<svg width="82" height="81" viewBox="0 0 82 81" fill="none" xmlns="http://www.w3.org/2000/svg">
<g clip-path="url(#clip0_4002_597)">
<path d="M2.00575 20.5366C22.9376 21.7866 44.1439 29.1263 57.9258 45.8422C61.9613 50.7369 65.1291 57.6695 67.1808 63.7367C67.6143 65.0189 67.8261 66.3606 68.0692 67.6908C68.2912 68.9057 72.9699 61.562 73.5594 60.7374C79.8618 51.9213 72.8656 61.2561 70.9067 64.9161C69.3864 67.7566 68.5951 71.3362 66.6288 73.918C65.0455 75.9969 61.7878 71.973 60.419 70.8434C59.0116 69.682 48.6569 63.4354 52.6187 61.6949C59.7267 58.5721 67.0533 59.0493 74.5278 58.5079" stroke="white" stroke-width="2" stroke-linecap="round"/>
</g>
<defs>
<clipPath id="clip0_4002_597">
<rect width="85" height="29" fill="white" transform="translate(60.7075 80.8308) rotate(-135)"/>
</clipPath>
</defs>
</svg>
