<svg width="1440" height="442" viewBox="0 0 1440 442" fill="none" xmlns="http://www.w3.org/2000/svg">
<rect x="-86.1914" y="247.722" width="1594" height="136" transform="rotate(-8.51834 -86.1914 247.722)" fill="#FFCF4E"/>
<path d="M8.75081 233.513L23.0909 231.365L-9.10698 259.431L-23.447 261.579L8.75081 233.513Z" fill="black"/>
<path d="M38.4205 229.069L52.7605 226.921L20.5627 254.988L6.22266 257.135L38.4205 229.069Z" fill="black"/>
<path d="M68.0892 224.625L82.4292 222.477L50.2314 250.544L35.8914 252.692L68.0892 224.625Z" fill="black"/>
<path d="M97.7584 220.181L112.098 218.034L79.9006 246.1L65.5605 248.248L97.7584 220.181Z" fill="black"/>
<path d="M127.427 215.738L141.767 213.59L109.57 241.656L95.2295 243.804L127.427 215.738Z" fill="black"/>
<path d="M157.097 211.294L171.437 209.146L139.239 237.212L124.899 239.36L157.097 211.294Z" fill="black"/>
<path d="M186.766 206.85L201.106 204.702L168.908 232.769L154.568 234.916L186.766 206.85Z" fill="black"/>
<path d="M216.435 202.406L230.775 200.258L198.577 228.325L184.237 230.473L216.435 202.406Z" fill="black"/>
<path d="M246.104 197.963L260.444 195.815L228.246 223.881L213.906 226.029L246.104 197.963Z" fill="black"/>
<path d="M275.773 193.519L290.113 191.371L257.915 219.437L243.575 221.585L275.773 193.519Z" fill="black"/>
<path d="M305.442 189.075L319.782 186.927L287.584 214.993L273.244 217.141L305.442 189.075Z" fill="black"/>
<path d="M335.111 184.631L349.451 182.483L317.253 210.55L302.913 212.697L335.111 184.631Z" fill="black"/>
<path d="M364.78 180.187L379.12 178.04L346.922 206.106L332.582 208.254L364.78 180.187Z" fill="black"/>
<path d="M394.449 175.744L408.789 173.596L376.591 201.662L362.251 203.81L394.449 175.744Z" fill="black"/>
<path d="M424.118 171.3L438.458 169.152L406.26 197.218L391.92 199.366L424.118 171.3Z" fill="black"/>
<path d="M453.787 166.856L468.127 164.708L435.929 192.775L421.589 194.923L453.787 166.856Z" fill="black"/>
<path d="M483.456 162.412L497.796 160.265L465.598 188.331L451.258 190.479L483.456 162.412Z" fill="black"/>
<path d="M513.125 157.968L527.465 155.821L495.267 183.887L480.927 186.035L513.125 157.968Z" fill="black"/>
<path d="M542.794 153.525L557.134 151.377L524.936 179.443L510.596 181.591L542.794 153.525Z" fill="black"/>
<path d="M572.463 149.081L586.804 146.933L554.606 175L540.266 177.147L572.463 149.081Z" fill="black"/>
<path d="M602.132 144.637L616.472 142.489L584.275 170.556L569.935 172.704L602.132 144.637Z" fill="black"/>
<path d="M631.801 140.193L646.141 138.046L613.944 166.112L599.604 168.26L631.801 140.193Z" fill="black"/>
<path d="M661.47 135.75L675.81 133.602L643.613 161.668L629.272 163.816L661.47 135.75Z" fill="black"/>
<path d="M691.139 131.306L705.48 129.158L673.282 157.224L658.942 159.372L691.139 131.306Z" fill="black"/>
<path d="M720.808 126.862L735.148 124.714L702.951 152.781L688.611 154.928L720.808 126.862Z" fill="black"/>
<path d="M750.477 122.418L764.817 120.27L732.62 148.337L718.28 150.485L750.477 122.418Z" fill="black"/>
<path d="M780.147 117.975L794.487 115.827L762.289 143.893L747.949 146.041L780.147 117.975Z" fill="black"/>
<path d="M809.815 113.531L824.155 111.383L791.957 139.449L777.617 141.597L809.815 113.531Z" fill="black"/>
<path d="M839.485 109.087L853.825 106.939L821.627 135.005L807.287 137.153L839.485 109.087Z" fill="black"/>
<path d="M869.154 104.643L883.494 102.495L851.296 130.562L836.956 132.71L869.154 104.643Z" fill="black"/>
<path d="M898.823 100.199L913.163 98.0516L880.965 126.118L866.625 128.266L898.823 100.199Z" fill="black"/>
<path d="M928.492 95.7556L942.832 93.6078L910.634 121.674L896.294 123.822L928.492 95.7556Z" fill="black"/>
<path d="M958.161 91.312L972.502 89.1642L940.304 117.231L925.964 119.378L958.161 91.312Z" fill="black"/>
<path d="M987.83 86.8682L1002.17 84.7203L969.973 112.787L955.633 114.935L987.83 86.8682Z" fill="black"/>
<path d="M1017.5 82.4243L1031.84 80.2765L999.642 108.343L985.302 110.491L1017.5 82.4243Z" fill="black"/>
<path d="M1047.17 77.9807L1061.51 75.8329L1029.31 103.899L1014.97 106.047L1047.17 77.9807Z" fill="black"/>
<path d="M1076.84 73.5369L1091.18 71.389L1058.98 99.4554L1044.64 101.603L1076.84 73.5369Z" fill="black"/>
<path d="M1106.51 69.093L1120.85 66.9452L1088.65 95.0115L1074.31 97.1594L1106.51 69.093Z" fill="black"/>
<path d="M1136.18 64.6492L1150.52 62.5013L1118.32 90.5677L1103.98 92.7155L1136.18 64.6492Z" fill="black"/>
<path d="M1165.84 60.2056L1180.18 58.0577L1147.99 86.1241L1133.65 88.2719L1165.84 60.2056Z" fill="black"/>
<path d="M1195.51 55.7617L1209.85 53.6139L1177.66 81.6802L1163.32 83.8281L1195.51 55.7617Z" fill="black"/>
<path d="M1225.18 51.3179L1239.52 49.17L1207.33 77.2364L1192.99 79.3842L1225.18 51.3179Z" fill="black"/>
<path d="M1254.85 46.8743L1269.19 44.7264L1236.99 72.7928L1222.65 74.9406L1254.85 46.8743Z" fill="black"/>
<path d="M1284.52 42.4304L1298.86 40.2826L1266.66 68.3489L1252.32 70.4968L1284.52 42.4304Z" fill="black"/>
<path d="M1314.19 37.9866L1328.53 35.8387L1296.33 63.9051L1281.99 66.0529L1314.19 37.9866Z" fill="black"/>
<path d="M1343.86 33.5428L1358.2 31.395L1326 59.4614L1311.66 61.6092L1343.86 33.5428Z" fill="black"/>
<path d="M1373.53 29.099L1387.87 26.9512L1355.67 55.0175L1341.33 57.1653L1373.53 29.099Z" fill="black"/>
<path d="M1403.2 24.6553L1417.54 22.5074L1385.34 50.5738L1371 52.7216L1403.2 24.6553Z" fill="black"/>
<path d="M1432.87 20.2115L1447.21 18.0637L1415.01 46.1301L1400.67 48.2779L1432.87 20.2115Z" fill="black"/>
<path d="M1462.53 15.7679L1476.87 13.6201L1444.68 41.6865L1430.34 43.8343L1462.53 15.7679Z" fill="black"/>
<path d="M-4.92204 344.754L9.41801 342.606L-22.041 375.605L-36.381 377.753L-4.92204 344.754Z" fill="black"/>
<path d="M24.7472 340.31L39.0872 338.162L7.62819 371.162L-6.71186 373.309L24.7472 340.31Z" fill="black"/>
<path d="M54.4161 335.866L68.7561 333.719L37.2971 366.718L22.9571 368.866L54.4161 335.866Z" fill="black"/>
<path d="M84.0853 331.423L98.4253 329.275L66.9663 362.274L52.6263 364.422L84.0853 331.423Z" fill="black"/>
<path d="M113.754 326.979L128.094 324.831L96.6353 357.83L82.2952 359.978L113.754 326.979Z" fill="black"/>
<path d="M143.423 322.535L157.763 320.387L126.304 353.386L111.964 355.534L143.423 322.535Z" fill="black"/>
<path d="M173.092 318.091L187.432 315.943L155.973 348.943L141.633 351.09L173.092 318.091Z" fill="black"/>
<path d="M202.762 313.647L217.102 311.5L185.643 344.499L171.303 346.647L202.762 313.647Z" fill="black"/>
<path d="M232.431 309.204L246.771 307.056L215.312 340.055L200.971 342.203L232.431 309.204Z" fill="black"/>
<path d="M262.099 304.76L276.439 302.612L244.98 335.611L230.64 337.759L262.099 304.76Z" fill="black"/>
<path d="M291.769 300.316L306.109 298.168L274.65 331.167L260.31 333.315L291.769 300.316Z" fill="black"/>
<path d="M321.438 295.872L335.778 293.724L304.319 326.724L289.979 328.871L321.438 295.872Z" fill="black"/>
<path d="M351.107 291.429L365.447 289.281L333.988 322.28L319.648 324.428L351.107 291.429Z" fill="black"/>
<path d="M380.776 286.985L395.116 284.837L363.657 317.836L349.317 319.984L380.776 286.985Z" fill="black"/>
<path d="M410.445 282.541L424.785 280.393L393.326 313.392L378.986 315.54L410.445 282.541Z" fill="black"/>
<path d="M440.114 278.097L454.454 275.95L422.995 308.949L408.655 311.097L440.114 278.097Z" fill="black"/>
<path d="M469.783 273.654L484.123 271.506L452.664 304.505L438.324 306.653L469.783 273.654Z" fill="black"/>
<path d="M499.452 269.21L513.792 267.062L482.333 300.061L467.993 302.209L499.452 269.21Z" fill="black"/>
<path d="M529.121 264.766L543.461 262.618L512.002 295.617L497.662 297.765L529.121 264.766Z" fill="black"/>
<path d="M558.79 260.322L573.13 258.174L541.671 291.174L527.331 293.321L558.79 260.322Z" fill="black"/>
<path d="M588.459 255.878L602.799 253.731L571.34 286.73L557 288.878L588.459 255.878Z" fill="black"/>
<path d="M618.128 251.435L632.468 249.287L601.009 282.286L586.669 284.434L618.128 251.435Z" fill="black"/>
<path d="M647.797 246.991L662.137 244.843L630.678 277.842L616.338 279.99L647.797 246.991Z" fill="black"/>
<path d="M677.466 242.547L691.806 240.399L660.347 273.398L646.007 275.546L677.466 242.547Z" fill="black"/>
<path d="M707.136 238.103L721.476 235.955L690.017 268.955L675.677 271.102L707.136 238.103Z" fill="black"/>
<path d="M736.805 233.659L751.145 231.512L719.686 264.511L705.346 266.659L736.805 233.659Z" fill="black"/>
<path d="M766.473 229.216L780.814 227.068L749.355 260.067L735.014 262.215L766.473 229.216Z" fill="black"/>
<path d="M796.142 224.772L810.482 222.624L779.023 255.623L764.683 257.771L796.142 224.772Z" fill="black"/>
<path d="M825.811 220.328L840.151 218.18L808.692 251.179L794.352 253.327L825.811 220.328Z" fill="black"/>
<path d="M855.481 215.885L869.821 213.737L838.362 246.736L824.022 248.884L855.481 215.885Z" fill="black"/>
<path d="M885.15 211.441L899.49 209.293L868.031 242.292L853.691 244.44L885.15 211.441Z" fill="black"/>
<path d="M914.819 206.997L929.159 204.849L897.7 237.848L883.36 239.996L914.819 206.997Z" fill="black"/>
<path d="M944.488 202.553L958.828 200.405L927.369 233.404L913.029 235.552L944.488 202.553Z" fill="black"/>
<path d="M974.157 198.109L988.497 195.962L957.038 228.961L942.698 231.109L974.157 198.109Z" fill="black"/>
<path d="M1003.83 193.666L1018.17 191.518L986.707 224.517L972.367 226.665L1003.83 193.666Z" fill="black"/>
<path d="M1033.49 189.222L1047.83 187.074L1016.38 220.073L1002.04 222.221L1033.49 189.222Z" fill="black"/>
<path d="M1063.16 184.778L1077.5 182.63L1046.04 215.629L1031.7 217.777L1063.16 184.778Z" fill="black"/>
<path d="M1092.83 180.334L1107.17 178.186L1075.71 211.186L1061.37 213.333L1092.83 180.334Z" fill="black"/>
<path d="M1122.5 175.89L1136.84 173.743L1105.38 206.742L1091.04 208.89L1122.5 175.89Z" fill="black"/>
<path d="M1152.17 171.447L1166.51 169.299L1135.05 202.298L1120.71 204.446L1152.17 171.447Z" fill="black"/>
<path d="M1181.84 167.003L1196.18 164.855L1164.72 197.854L1150.38 200.002L1181.84 167.003Z" fill="black"/>
<path d="M1211.51 162.559L1225.85 160.411L1194.39 193.41L1180.05 195.558L1211.51 162.559Z" fill="black"/>
<path d="M1241.18 158.115L1255.52 155.967L1224.06 188.967L1209.72 191.114L1241.18 158.115Z" fill="black"/>
<path d="M1270.85 153.672L1285.19 151.524L1253.73 184.523L1239.39 186.671L1270.85 153.672Z" fill="black"/>
<path d="M1300.52 149.228L1314.86 147.08L1283.4 180.079L1269.06 182.227L1300.52 149.228Z" fill="black"/>
<path d="M1330.19 144.784L1344.53 142.636L1313.07 175.635L1298.73 177.783L1330.19 144.784Z" fill="black"/>
<path d="M1359.85 140.34L1374.19 138.192L1342.74 171.192L1328.4 173.339L1359.85 140.34Z" fill="black"/>
<path d="M1389.52 135.896L1403.86 133.749L1372.4 166.748L1358.06 168.896L1389.52 135.896Z" fill="black"/>
<path d="M1419.19 131.453L1433.53 129.305L1402.07 162.304L1387.73 164.452L1419.19 131.453Z" fill="black"/>
<path d="M1448.86 127.009L1463.2 124.861L1431.74 157.86L1417.4 160.008L1448.86 127.009Z" fill="black"/>
<path d="M-3.22068 275.863L7.1451 274.376C14.7311 273.24 20.0975 273.721 23.2443 275.821C26.4337 277.914 28.5933 282.732 29.7232 290.276L30.0296 292.321C31.3573 301.186 31.1397 307.297 29.3768 310.655C27.6075 313.97 22.2266 316.301 13.2342 317.648L3.48203 319.305L-0.599731 319.981L-9.46955 320.983C-14.4133 321.724 -18.3935 321.187 -21.4104 319.373C-24.4337 317.516 -26.3187 314.095 -27.0656 309.108L-28.3711 301.265C-29.6669 292.613 -29.4046 286.8 -27.5843 283.826C-25.7703 280.809 -20.708 278.678 -12.3975 277.434L-3.22068 275.863ZM-5.3216 309.839L1.66562 308.923L8.30446 307.863C11.9696 307.314 14.5332 306.538 15.9952 305.535C17.4934 304.482 18.0095 302.401 17.5435 299.29L16.8096 293.517C16.516 291.557 16.1392 289.914 15.6792 288.588C15.2555 287.214 14.6335 286.261 13.8132 285.73C12.9866 285.157 11.8328 284.872 10.3519 284.876C8.91354 284.874 7.38464 284.994 5.76515 285.236L-7.13856 287.234C-10.0792 287.675 -12.272 288.308 -13.7169 289.135C-15.1617 289.961 -15.8652 291.374 -15.8273 293.372C-15.7532 295.322 -15.6203 296.936 -15.4288 298.215L-15.2565 299.366L-14.998 301.092C-14.4107 305.012 -13.5674 307.588 -12.4682 308.818C-11.3263 310.041 -8.94413 310.381 -5.3216 309.839ZM50.154 287.673C50.6831 284.805 51.946 282.764 53.9429 281.55C55.9397 280.336 58.6216 279.477 61.9884 278.972C68.0402 278.066 72.4733 278.426 75.2878 280.052C78.1385 281.63 80.0075 285.38 80.8948 291.304L83.2406 306.966L72.1173 308.632L69.7715 292.97C69.3757 290.328 68.5663 288.706 67.3434 288.105C66.163 287.498 64.1025 287.414 61.1619 287.854L59.8833 288.046C56.6017 288.537 54.2672 289.388 52.8798 290.598C51.5286 291.759 51.1019 294.002 51.5998 297.326L51.7051 298.029L53.7063 311.39L42.6469 313.046L38.1754 283.193L49.2348 281.536L50.154 287.673ZM115.763 302.749L105.03 303.964C99.916 304.73 96.2266 303.954 93.962 301.635C91.7401 299.31 90.2174 295.398 89.3939 289.901C88.6407 284.872 89.072 281.06 90.6877 278.465C92.297 275.827 95.531 274.144 100.389 273.417L110.845 271.655C113.998 271.182 116.645 270.96 118.784 270.988C120.924 271.016 122.832 271.537 124.509 272.549C126.185 273.562 127.395 274.949 128.139 276.712C128.924 278.468 129.493 280.518 129.844 282.862C129.921 283.373 129.986 283.952 130.039 284.597C130.134 285.236 130.243 285.961 130.364 286.771L101.086 291.156C101.437 293.5 102.112 295.098 103.111 295.951C104.104 296.761 105.751 296.993 108.052 296.649L114.336 295.838C115.743 295.628 116.902 295.367 117.814 295.056C118.726 294.745 119.299 294.354 119.534 293.883C119.811 293.406 119.909 292.607 119.828 291.486L130.824 289.839C131.494 294.314 130.473 297.387 127.76 299.057C125.089 300.72 121.091 301.951 115.763 302.749ZM106.854 279.05C104.51 279.401 102.716 279.931 101.471 280.64C100.22 281.307 99.7418 282.621 100.035 284.581L100.224 285.403L118.571 282.655C118.245 280.481 117.502 279.154 116.341 278.675C115.173 278.152 113.396 278.07 111.009 278.428L106.854 279.05ZM165.728 263.696L177.261 261.707C181.863 261.018 185.503 261.17 188.179 262.163C190.898 263.15 192.57 265.732 193.195 269.909L196.211 290.046L185.088 291.712L184.36 286.853C183.865 289.368 182.537 291.114 180.374 292.091C178.253 293.062 175.424 293.813 171.887 294.343L169.841 294.649C165.068 295.364 161.463 295.294 159.025 294.439C156.63 293.578 155.107 290.973 154.456 286.626C153.984 283.473 154.482 280.98 155.951 279.148C157.455 277.266 159.785 276.09 162.938 275.617C164.581 275.24 166.255 274.924 167.96 274.669L169.686 274.41L172.946 273.922C175.205 273.584 177.088 273.498 178.594 273.664C180.143 273.825 181.51 274.513 182.694 275.73L182.206 272.47C181.938 270.68 181.376 269.544 180.519 269.062C179.656 268.538 178.309 268.413 176.476 268.687L171.343 269.326L167.718 269.999C166.652 270.159 165.886 270.426 165.42 270.801C164.953 271.176 164.793 271.853 164.94 272.834L153.944 274.481C153.434 271.071 154.3 268.566 156.545 266.967C158.831 265.361 161.892 264.27 165.728 263.696ZM173.455 286.918L174.414 286.775C176.843 286.411 178.809 286.007 180.311 285.564C181.85 285.073 182.818 284.557 183.217 284.018C183.615 283.479 183.741 282.719 183.594 281.739C183.416 280.546 182.807 279.831 181.77 279.594C180.768 279.308 179.586 279.268 178.222 279.472L171.874 280.292C169.914 280.586 168.28 281.026 166.974 281.614C165.661 282.159 165.113 283.157 165.33 284.606C165.541 286.012 166.214 286.87 167.35 287.179C168.479 287.446 169.896 287.451 171.601 287.196L173.455 286.918ZM213.031 263.278C213.56 260.41 214.823 258.369 216.82 257.154C218.817 255.94 221.499 255.081 224.865 254.577C230.917 253.67 235.35 254.03 238.165 255.657C241.015 257.234 242.884 260.985 243.772 266.909L246.118 282.571L234.994 284.237L232.648 268.575C232.253 265.933 231.443 264.311 230.22 263.71C229.04 263.102 226.979 263.019 224.039 263.459L222.76 263.651C219.479 264.142 217.144 264.993 215.757 266.203C214.405 267.364 213.979 269.606 214.477 272.931L214.582 273.634L216.583 286.995L205.524 288.651L201.052 258.797L212.112 257.141L213.031 263.278ZM287.047 276.441L286.08 269.984C285.777 272.905 284.505 275.035 282.265 276.373C280.062 277.661 277.234 278.564 273.782 279.081C270.202 279.617 267.038 279.873 264.289 279.849C261.546 279.868 259.373 279.322 257.769 278.211C256.165 277.101 255.037 275.679 254.385 273.947C253.776 272.208 253.293 270.145 252.935 267.759L252.61 265.585C252.182 262.73 252.016 260.314 252.113 258.339C252.245 256.315 253.035 254.606 254.482 253.213C255.923 251.777 257.872 250.679 260.329 249.919C262.822 249.11 265.475 248.494 268.288 248.073C272.72 247.409 275.941 247.384 277.95 247.998C279.953 248.57 281.734 249.698 283.294 251.381L280.66 233.801L291.464 232.183L297.851 274.823L287.047 276.441ZM276.702 270.212C280.197 269.689 282.526 268.948 283.689 267.989C284.896 267.024 285.266 264.986 284.8 261.875C284.296 258.508 283.426 256.481 282.19 255.795C280.948 255.066 278.473 254.979 274.765 255.535L272.336 255.898C270.716 256.141 269.259 256.446 267.963 256.815C266.71 257.177 265.742 257.692 265.057 258.361C264.373 259.03 263.992 259.828 263.913 260.755C263.834 261.682 263.896 262.827 264.1 264.191C264.586 267.43 265.392 269.466 266.519 270.299C267.646 271.133 269.829 271.307 273.068 270.822L276.702 270.212ZM344.758 223.743L355.124 222.256C362.71 221.12 368.076 221.602 371.223 223.701C374.412 225.794 376.572 230.613 377.702 238.156L378.008 240.202C379.336 249.066 379.118 255.177 377.355 258.535C375.586 261.85 370.205 264.181 361.213 265.528L351.461 267.185L347.379 267.862L338.509 268.864C333.565 269.604 329.585 269.067 326.568 267.253C323.545 265.397 321.66 261.975 320.913 256.989L319.607 249.145C318.312 240.493 318.574 234.681 320.394 231.706C322.208 228.689 327.271 226.559 335.581 225.314L344.758 223.743ZM342.657 257.719L349.644 256.803L356.283 255.744C359.948 255.195 362.512 254.418 363.974 253.415C365.472 252.363 365.988 250.281 365.522 247.17L364.788 241.397C364.494 239.437 364.118 237.794 363.658 236.469C363.234 235.094 362.612 234.141 361.792 233.611C360.965 233.037 359.811 232.753 358.33 232.757C356.892 232.754 355.363 232.874 353.744 233.117L340.84 235.115C337.899 235.555 335.707 236.189 334.262 237.015C332.817 237.842 332.113 239.254 332.151 241.253C332.225 243.203 332.358 244.817 332.55 246.095L332.722 247.246L332.981 248.972C333.568 252.893 334.411 255.468 335.51 256.698C336.652 257.921 339.034 258.262 342.657 257.719ZM398.132 235.553C398.662 232.685 399.925 230.644 401.921 229.43C403.918 228.216 406.6 227.357 409.967 226.853C416.019 225.946 420.452 226.306 423.266 227.933C426.117 229.51 427.986 233.261 428.873 239.185L431.219 254.847L420.096 256.513L417.75 240.851C417.354 238.208 416.545 236.587 415.322 235.985C414.141 235.378 412.081 235.294 409.14 235.735L407.862 235.926C404.58 236.418 402.246 237.269 400.858 238.479C399.507 239.64 399.08 241.882 399.578 245.206L399.684 245.91L401.685 259.27L390.625 260.927L386.154 231.073L397.213 229.416L398.132 235.553ZM440.568 253.447L434.182 210.807L445.241 209.151L451.628 251.79L440.568 253.447ZM473.879 262.314L469.685 262.681L468.555 255.137L470.994 254.837C473.082 254.525 474.449 253.906 475.095 252.981C475.748 252.099 476.37 250.437 476.963 247.995L472.424 248.675L454.272 220.87L466.546 219.032L478.598 239.711L484.957 216.274L497.231 214.436L485.297 254.329C484.421 257.205 483.16 259.115 481.515 260.059C479.919 261.039 477.373 261.791 473.879 262.314ZM520.445 241.483L505.998 243.647L523.392 197.445L540.908 194.822L570.564 233.976L556.245 236.121L551.059 228.989L523.506 233.116L520.445 241.483ZM526.724 223.614L545.007 220.875L533.337 205.368L526.724 223.614ZM619.861 227.9C620.43 231.693 619.683 234.855 617.622 237.386C615.567 239.959 612.665 241.527 608.914 242.089C607.576 242.463 605.976 242.834 604.113 243.2C602.294 243.56 600.51 243.87 598.763 244.132C592.924 245.006 588.225 245.057 584.667 244.282C581.151 243.502 579.039 240.746 578.331 236.015L589.582 234.33C589.716 235.225 590.205 235.871 591.049 236.268C591.935 236.658 593.216 236.771 594.89 236.607C596.572 236.486 597.604 236.397 597.988 236.339L599.33 236.138C601.461 235.819 603.335 235.386 604.953 234.839C606.57 234.291 607.595 233.571 608.028 232.679C608.461 231.786 608.665 230.971 608.642 230.234C608.661 229.49 608.601 228.649 608.46 227.712L607.599 221.958C606.961 224.102 605.845 225.816 604.251 227.1C602.657 228.385 599.686 229.353 595.339 230.004C588.137 231.083 583.062 230.949 580.116 229.604C577.205 228.21 575.236 224.082 574.208 217.221C573.596 213.129 573.732 209.819 574.617 207.29C575.495 204.718 577.287 203.012 579.994 202.171C582.743 201.323 585.307 200.699 587.688 200.299C590.068 199.899 591.748 199.626 592.728 199.479C596.01 198.987 598.493 198.986 600.179 199.474C601.858 199.92 603.431 201.405 604.899 203.931L604.075 198.433L615.198 196.767L619.584 226.046L619.861 227.9ZM596.799 221.419L597.758 221.275C599.931 220.95 601.516 220.625 602.514 220.302C603.505 219.935 604.349 219.46 605.046 218.877C605.736 218.25 606.124 217.495 606.209 216.611C606.337 215.72 606.322 214.742 606.162 213.676L605.942 212.206C605.616 210.033 605.046 208.549 604.23 207.757C603.45 206.915 601.952 206.66 599.736 206.992L593.835 207.745L591.918 208.032C590.469 208.249 589.267 208.516 588.312 208.833C587.357 209.151 586.62 209.61 586.1 210.211C585.58 210.811 585.274 211.533 585.182 212.374C585.127 213.167 585.159 213.968 585.281 214.778L585.444 215.865C585.782 218.123 586.326 219.719 587.076 220.653C587.826 221.586 589.175 222.016 591.125 221.942C593.111 221.819 594.384 221.737 594.945 221.697C595.499 221.614 596.117 221.521 596.799 221.419ZM652.09 222.419L641.357 223.634C636.242 224.4 632.553 223.624 630.288 221.305C628.066 218.98 626.544 215.068 625.72 209.571C624.967 204.542 625.398 200.73 627.014 198.135C628.623 195.497 631.857 193.814 636.716 193.087L647.171 191.325C650.325 190.852 652.971 190.63 655.111 190.658C657.25 190.686 659.158 191.207 660.835 192.219C662.512 193.232 663.722 194.619 664.465 196.382C665.251 198.138 665.819 200.188 666.17 202.532C666.247 203.043 666.312 203.622 666.365 204.267C666.461 204.906 666.569 205.631 666.691 206.441L637.412 210.826C637.763 213.17 638.438 214.768 639.437 215.621C640.43 216.431 642.077 216.663 644.379 216.319L650.663 215.508C652.069 215.298 653.228 215.037 654.14 214.726C655.052 214.415 655.626 214.024 655.86 213.553C656.137 213.076 656.235 212.277 656.155 211.156L667.15 209.509C667.82 213.984 666.799 217.057 664.086 218.727C661.416 220.39 657.417 221.621 652.09 222.419ZM643.181 198.72C640.837 199.071 639.042 199.601 637.798 200.31C636.547 200.977 636.068 202.291 636.362 204.251L636.55 205.073L654.897 202.325C654.572 200.151 653.828 198.824 652.667 198.345C651.5 197.822 649.722 197.74 647.336 198.098L643.181 198.72ZM684.556 192.653C685.085 189.785 686.348 187.744 688.345 186.53C690.342 185.316 693.024 184.457 696.391 183.953C702.442 183.046 706.875 183.406 709.69 185.033C712.541 186.61 714.41 190.361 715.297 196.285L717.643 211.947L706.519 213.613L704.174 197.951C703.778 195.308 702.968 193.687 701.745 193.085C700.565 192.478 698.505 192.394 695.564 192.835L694.285 193.026C691.004 193.518 688.669 194.369 687.282 195.579C685.931 196.74 685.504 198.982 686.002 202.306L686.107 203.01L688.108 216.37L677.049 218.027L672.578 188.173L683.637 186.516L684.556 192.653ZM763.879 202.407C762.421 204.02 760.186 205.248 757.175 206.091C754.207 206.928 750.933 207.614 747.353 208.151C742.239 208.917 738.23 209.212 735.328 209.036C732.426 208.861 729.975 207.769 727.974 205.759C725.968 203.706 724.6 200.251 723.873 195.392C723.139 190.491 723.519 186.774 725.013 184.241C726.55 181.701 729.652 179.864 734.318 178.729L744.735 176.712C751.043 175.767 755.748 175.759 758.85 176.689C761.952 177.619 763.915 180.833 764.739 186.33L753.615 187.996C753.373 187.248 753.134 186.674 752.9 186.273C752.659 185.83 752.254 185.455 751.685 185.148C751.117 184.841 750.226 184.713 749.013 184.764C747.837 184.766 746.589 184.866 745.267 185.064L743.477 185.332C741.687 185.6 740.166 185.915 738.913 186.277C737.703 186.632 736.777 187.141 736.135 187.804C735.494 188.466 735.087 189.246 734.917 190.143C734.789 191.034 734.849 192.31 735.098 193.972C735.596 197.297 736.651 199.252 738.264 199.838C739.877 200.425 742.559 200.437 746.309 199.875C748.739 199.511 750.552 199.109 751.75 198.668C752.99 198.221 753.788 197.731 754.144 197.198C754.494 196.623 754.679 196.116 754.7 195.677C754.764 195.232 754.742 194.647 754.634 193.922L765.885 192.237C766.23 194.539 766.301 196.467 766.098 198.022C765.889 199.535 765.149 200.997 763.879 202.407ZM789.02 215.113L784.826 215.479L783.696 207.936L786.135 207.636C788.223 207.323 789.59 206.705 790.236 205.78C790.888 204.898 791.511 203.236 792.104 200.794L787.565 201.474L769.413 173.669L781.687 171.831L793.739 192.51L800.098 169.073L812.372 167.235L800.438 207.128C799.562 210.004 798.301 211.914 796.656 212.858C795.06 213.838 792.514 214.589 789.02 215.113ZM875.988 188.23L867.528 171.458L863.97 190.03L848.755 192.309L833.416 164.083L845.115 162.331L855.425 183.597L860.394 160.042L870.942 158.462L882.402 179.557L886.284 156.164L898.111 154.393L891.523 185.903L875.988 188.23ZM905.103 148.509L903.897 140.454L914.956 138.798L916.163 146.852L905.103 148.509ZM910.283 183.093L905.812 153.239L916.871 151.583L921.343 181.437L910.283 183.093ZM942.349 155.284L943.775 164.809C944.069 166.769 944.575 168.11 945.293 168.83C946.053 169.544 947.371 169.761 949.246 169.48C950.908 169.231 952.06 168.775 952.702 168.112C953.386 167.444 953.61 166.321 953.374 164.744L953.172 163.401L961.803 162.109C962.594 167.393 962.281 171.122 960.864 173.295C959.482 175.419 956.064 176.89 950.609 177.707C943.918 178.709 939.425 178.533 937.131 177.177C934.83 175.779 933.414 173.311 932.884 169.773L930.969 156.988L925.28 157.84L924.179 150.489L929.868 149.636L928.777 142.349L940.156 140.644L941.247 147.932L959.275 145.232L960.376 152.584L942.349 155.284ZM991.612 139.735C997.323 138.88 1001.73 139.179 1004.82 140.633C1007.91 142.087 1009.87 145.541 1010.68 150.996L1013.18 167.681L1002.12 169.338L999.894 154.443C999.447 151.459 998.748 149.56 997.798 148.743C996.884 147.878 994.488 147.736 990.61 148.317L989.907 148.422C986.412 148.945 983.989 149.788 982.638 150.949C981.329 152.103 980.908 154.236 981.374 157.347L981.728 159.713L983.586 172.114L972.526 173.771L966.14 131.131L977.199 129.475L979.88 147.375C980.618 144.737 981.916 142.93 983.774 141.955C985.675 140.973 988.288 140.233 991.612 139.735ZM1049.75 149.002C1050.01 150.749 1050.75 151.771 1051.97 152.068C1053.23 152.315 1054.9 152.282 1056.99 151.97L1063.14 151.114L1071.79 149.556C1074.18 149.199 1075.69 148.668 1076.32 147.962C1076.96 147.257 1077.18 146.265 1076.99 144.987C1076.82 143.836 1076.25 142.984 1075.3 142.43C1074.39 141.869 1072.76 141.764 1070.42 142.115L1068.31 142.431L1046.89 145.182C1042.88 145.782 1039.9 145.205 1037.93 143.451C1036.01 141.648 1034.73 138.658 1034.11 134.481C1033.58 130.944 1033.68 128.118 1034.41 126.005C1035.18 123.885 1036.88 122.279 1039.5 121.189C1042.16 120.05 1045.7 119.084 1050.11 118.292C1054.57 117.494 1057.57 116.98 1059.1 116.751L1068.2 115.519C1071.82 114.976 1074.78 114.837 1077.09 115.102C1079.39 115.324 1081.1 116.135 1082.22 117.535C1083.39 118.929 1084.2 120.225 1084.64 121.423C1085.08 122.62 1085.46 124.306 1085.79 126.479L1073.06 128.385C1072.84 126.893 1072.24 125.916 1071.25 125.453C1070.31 124.984 1069.05 124.868 1067.48 125.104L1061.2 125.979L1051.34 127.782C1050.02 127.98 1048.93 128.405 1048.07 129.057C1047.24 129.66 1046.92 130.537 1047.09 131.687C1047.32 133.264 1048.01 134.228 1049.16 134.58C1050.33 134.883 1051.86 134.894 1053.74 134.613L1055.08 134.412L1063.79 133.238L1072.37 132.019C1077.87 131.195 1081.98 131.472 1084.71 132.849C1087.48 134.177 1089.26 137.441 1090.04 142.64C1090.79 147.669 1090.18 151.291 1088.2 153.504C1086.26 155.711 1082.72 157.201 1077.56 157.973L1061.01 160.91L1052.29 162.021C1047.68 162.71 1044.18 162.472 1041.79 161.306C1039.39 160.14 1037.85 157.298 1037.18 152.78L1036.79 150.223L1049.58 148.308L1049.75 149.002ZM1131.3 149.991L1130.38 143.854C1130.1 146.641 1128.77 148.691 1126.4 150.006C1124.06 151.271 1121.18 152.159 1117.78 152.669C1112.23 153.499 1108 153.153 1105.07 151.631C1102.13 150.066 1100.26 146.599 1099.46 141.229L1096.97 124.608L1108.03 122.952L1110.37 138.55C1110.79 141.405 1111.77 143.133 1113.3 143.732C1114.82 144.288 1117.16 144.33 1120.31 143.858C1123.76 143.341 1126.17 142.413 1127.54 141.075C1128.95 139.689 1129.41 137.376 1128.92 134.137L1128.79 133.242L1126.82 120.137L1137.88 118.48L1142.36 148.334L1131.3 149.991ZM1159 120.219C1159.28 119.175 1159.64 118.249 1160.09 117.442C1160.53 116.634 1161.28 115.935 1162.32 115.343C1163.37 114.75 1164.64 114.254 1166.15 113.854C1167.7 113.447 1169.52 113.088 1171.61 112.775C1178.09 111.804 1182.87 111.851 1185.95 112.915C1189.02 113.937 1190.99 117.345 1191.86 123.141L1192.4 126.785C1192.77 129.214 1192.93 131.282 1192.88 132.989C1192.83 134.696 1192.23 136.397 1191.09 138.093C1189.99 139.74 1188.17 140.993 1185.64 141.851C1183.15 142.66 1180.07 143.339 1176.4 143.888C1173.04 144.392 1170.15 144.476 1167.75 144.139C1165.38 143.753 1163.46 142.449 1162 140.228L1164.74 158.512L1153.68 160.168L1147.22 117.081L1158.28 115.425L1159 120.219ZM1173.31 135.919C1177.02 135.364 1179.36 134.556 1180.34 133.495C1181.3 132.391 1181.53 130.092 1181 126.597C1180.64 124.168 1179.98 122.545 1179.03 121.729C1178.08 120.87 1176.34 120.629 1173.83 121.006L1166.52 121.969C1164.94 122.205 1163.78 122.466 1163.04 122.752C1162.3 123.037 1161.66 123.437 1161.13 123.953C1160.64 124.462 1160.35 125.159 1160.27 126.043C1160.18 126.927 1160.22 127.945 1160.4 129.096L1160.57 130.246C1160.96 132.846 1161.64 134.661 1162.63 135.69C1163.6 136.677 1165.33 136.985 1167.8 136.615L1173.31 135.919ZM1226.19 136.432L1215.45 137.647C1210.34 138.413 1206.65 137.637 1204.38 135.318C1202.16 132.993 1200.64 129.081 1199.82 123.584C1199.06 118.555 1199.49 114.743 1201.11 112.148C1202.72 109.51 1205.95 107.827 1210.81 107.1L1221.27 105.338C1224.42 104.865 1227.07 104.643 1229.21 104.671C1231.35 104.699 1233.25 105.22 1234.93 106.232C1236.61 107.245 1237.82 108.632 1238.56 110.395C1239.35 112.151 1239.92 114.201 1240.27 116.545C1240.34 117.056 1240.41 117.635 1240.46 118.28C1240.56 118.919 1240.67 119.644 1240.79 120.454L1211.51 124.839C1211.86 127.183 1212.53 128.781 1213.53 129.634C1214.53 130.444 1216.17 130.676 1218.47 130.332L1224.76 129.521C1226.16 129.311 1227.32 129.05 1228.24 128.739C1229.15 128.428 1229.72 128.037 1229.96 127.566C1230.23 127.089 1230.33 126.29 1230.25 125.169L1241.25 123.522C1241.92 127.997 1240.89 131.07 1238.18 132.74C1235.51 134.403 1231.51 135.634 1226.19 136.432ZM1217.28 112.733C1214.93 113.084 1213.14 113.614 1211.89 114.323C1210.64 114.99 1210.16 116.304 1210.46 118.264L1210.65 119.086L1228.99 116.338C1228.67 114.164 1227.92 112.837 1226.76 112.358C1225.6 111.835 1223.82 111.753 1221.43 112.11L1217.28 112.733ZM1258.62 106.475C1259.05 103.796 1260.18 101.863 1262 100.674C1263.87 99.4365 1266.31 98.5911 1269.34 98.1379C1273.94 97.4485 1277.23 97.7827 1279.22 99.1405C1281.21 100.498 1282.55 103.436 1283.22 107.953L1283.51 109.871L1273.22 111.413C1273.16 111.291 1273.1 111.06 1273.05 110.719C1272.58 108.742 1271.86 107.564 1270.89 107.187C1269.95 106.76 1268.31 106.723 1265.97 107.074C1263.28 107.476 1261.54 108.478 1260.73 110.08C1259.92 111.64 1259.73 113.869 1260.16 116.767L1262.2 130.383L1251.14 132.04L1246.67 102.186L1257.73 100.529L1258.62 106.475ZM1308.74 92.302L1320.37 91.0164C1324.45 90.8852 1327.41 91.7062 1329.24 93.4795C1331.11 95.2037 1332.36 98.1542 1332.98 102.331L1333.18 103.609C1334.08 109.661 1334.01 113.833 1332.96 116.126C1331.91 118.418 1328.4 120.295 1322.43 121.755L1310.32 123.83C1303.84 124.8 1299.18 124.649 1296.33 123.377C1293.52 122.097 1291.67 118.432 1290.76 112.38L1290.49 110.59C1289.93 106.797 1289.82 103.763 1290.18 101.487C1290.53 99.2116 1291.8 97.4752 1293.97 96.2781C1296.18 95.0321 1298.79 94.1185 1301.8 93.5375C1304.85 92.95 1307.16 92.5382 1308.74 92.302ZM1312.36 115.159L1313.57 114.977C1315.62 114.671 1317.25 114.361 1318.46 114.048C1319.72 113.729 1320.64 113.287 1321.21 112.722C1321.81 112.109 1322.19 111.421 1322.34 110.658C1322.52 109.846 1322.5 108.673 1322.27 107.139L1321.93 104.901C1321.73 103.538 1321.45 102.555 1321.1 101.954C1320.74 101.311 1320.16 100.787 1319.36 100.384C1318.56 99.9815 1317.38 99.8098 1315.82 99.8691C1314.26 99.9284 1312.5 100.105 1310.54 100.399C1308.58 100.692 1306.93 101.048 1305.6 101.465C1304.26 101.84 1303.22 102.432 1302.47 103.241C1301.76 104.045 1301.44 105.095 1301.5 106.393C1301.56 107.648 1301.64 108.638 1301.75 109.362C1301.94 110.641 1302.23 111.818 1302.6 112.894C1302.98 113.928 1303.57 114.667 1304.37 115.113C1305.18 115.558 1306.51 115.708 1308.36 115.561C1310.26 115.408 1311.59 115.274 1312.36 115.159ZM1388.74 67.8355C1395.17 66.8716 1399.78 67.2487 1402.57 68.9667C1405.39 70.6784 1407.28 74.688 1408.23 80.9955C1409.12 86.962 1408.77 91.328 1407.18 94.0935C1405.63 96.81 1401.76 98.631 1395.58 99.5566L1392.26 100.054L1371.99 103.09L1373.58 113.702L1360.6 115.645L1354.22 73.0059L1388.74 67.8355ZM1395.19 83.4058C1394.83 81.0192 1394.09 79.5402 1392.95 78.9689C1391.82 78.355 1389.97 78.2395 1387.41 78.6225L1368.75 81.4184L1370.44 92.7335L1389.3 89.9089C1391.77 89.5387 1393.45 88.9392 1394.32 88.1105C1395.24 87.2328 1395.53 85.6646 1395.19 83.4058ZM1435.97 73.2457L1447.6 71.9601C1451.68 71.8289 1454.64 72.6499 1456.47 74.4232C1458.34 76.1474 1459.59 79.0978 1460.21 83.2744L1460.41 84.553C1461.31 90.6047 1461.24 94.7769 1460.19 97.0694C1459.14 99.362 1455.63 101.238 1449.66 102.699L1437.55 104.774C1431.07 105.744 1426.41 105.593 1423.56 104.32C1420.75 103.041 1418.9 99.3756 1417.99 93.3239L1417.72 91.5339C1417.16 87.7409 1417.05 84.7066 1417.41 82.4309C1417.76 80.1553 1419.03 78.4189 1421.2 77.2218C1423.41 75.9758 1426.02 75.0622 1429.03 74.4811C1432.08 73.8937 1434.39 73.4819 1435.97 73.2457ZM1439.59 96.1029L1440.8 95.921C1442.85 95.6146 1444.48 95.3049 1445.69 94.9919C1446.95 94.6726 1447.87 94.2306 1448.44 93.6661C1449.04 93.0525 1449.42 92.3644 1449.57 91.6015C1449.75 90.7897 1449.73 89.6167 1449.5 88.0825L1449.16 85.845C1448.96 84.4812 1448.68 83.4988 1448.33 82.8979C1447.97 82.2543 1447.39 81.731 1446.59 81.3281C1445.79 80.9252 1444.61 80.7534 1443.05 80.8128C1441.49 80.8721 1439.73 81.0486 1437.77 81.3422C1435.81 81.6358 1434.16 81.9913 1432.83 82.4087C1431.49 82.7834 1430.45 83.3756 1429.7 84.1851C1428.99 84.9883 1428.67 86.0387 1428.73 87.3364C1428.79 88.5915 1428.87 89.5813 1428.98 90.3058C1429.17 91.5843 1429.46 92.7617 1429.83 93.8378C1430.21 94.8714 1430.8 95.6109 1431.6 96.0564C1432.41 96.5019 1433.74 96.6514 1435.59 96.5048C1437.49 96.3518 1438.82 96.2178 1439.59 96.1029ZM1507.33 93.6687L1498.87 76.8961L1495.31 95.4688L1480.1 97.7476L1464.76 69.5213L1476.46 67.7691L1486.77 89.036L1491.74 65.4807L1502.28 63.9009L1513.75 84.9954L1517.63 61.6029L1529.45 59.8315L1522.87 91.342L1507.33 93.6687ZM1564.8 85.7148L1554.07 86.9302C1548.95 87.6962 1545.26 86.9198 1543 84.6009C1540.78 82.2757 1539.25 78.3642 1538.43 72.8665C1537.68 67.8376 1538.11 64.0256 1539.72 61.4306C1541.33 58.793 1544.57 57.1103 1549.43 56.3826L1559.88 54.6206C1563.03 54.1482 1565.68 53.9261 1567.82 53.9543C1569.96 53.9824 1571.87 54.5028 1573.54 55.5153C1575.22 56.5278 1576.43 57.9152 1577.18 59.6776C1577.96 61.4336 1578.53 63.4835 1578.88 65.8275C1578.96 66.339 1579.02 66.9175 1579.08 67.5632C1579.17 68.2024 1579.28 68.9269 1579.4 69.7367L1550.12 74.122C1550.47 76.466 1551.15 78.0642 1552.15 78.9168C1553.14 79.7267 1554.79 79.9593 1557.09 79.6147L1563.37 78.8042C1564.78 78.5935 1565.94 78.3327 1566.85 78.0218C1567.76 77.7109 1568.34 77.3201 1568.57 76.8492C1568.85 76.3719 1568.95 75.5729 1568.86 74.4521L1579.86 72.8052C1580.53 77.2801 1579.51 80.3525 1576.8 82.0225C1574.13 83.6861 1570.13 84.9169 1564.8 85.7148ZM1555.89 62.0158C1553.55 62.3669 1551.75 62.8971 1550.51 63.6064C1549.26 64.2731 1548.78 65.5866 1549.07 67.5471L1549.26 68.3685L1567.61 65.6205C1567.28 63.447 1566.54 62.1204 1565.38 61.6407C1564.21 61.1184 1562.43 61.036 1560.05 61.3934L1555.89 62.0158ZM1597.24 55.7576C1597.66 53.0793 1598.79 51.1458 1600.62 49.9572C1602.48 48.7195 1604.92 47.8741 1607.95 47.4209C1612.55 46.7315 1615.85 47.0657 1617.84 48.4235C1619.83 49.7813 1621.16 52.7189 1621.84 57.2364L1622.13 59.1543L1611.83 60.6958C1611.77 60.5743 1611.72 60.3431 1611.66 60.0022C1611.19 58.0247 1610.47 56.8472 1609.5 56.4699C1608.57 56.0435 1606.93 56.0058 1604.58 56.3569C1601.9 56.7591 1600.15 57.7612 1599.35 59.3635C1598.53 60.9231 1598.34 63.1519 1598.78 66.0499L1600.82 79.6664L1589.76 81.3228L1585.29 51.4689L1596.35 49.8124L1597.24 55.7576ZM1654.35 47.7265C1653.73 47.6454 1653.09 47.6314 1652.45 47.6845C1651.8 47.7377 1651.03 47.8313 1650.14 47.9653L1645.34 48.6834C1644.62 48.7919 1643.94 48.9154 1643.31 49.0537C1642.67 49.1495 1641.99 49.3156 1641.29 49.5519C1640.62 49.7393 1640.08 50.0812 1639.68 50.5776C1639.31 51.0676 1639.18 51.6322 1639.28 52.2715C1639.4 53.1239 1639.83 53.6268 1640.55 53.7804C1641.27 53.934 1642.18 53.9278 1643.29 53.7618L1655.51 51.997C1660.28 51.282 1663.94 51.2359 1666.47 51.8587C1669 52.4388 1670.56 54.7106 1671.15 58.6741C1671.53 61.1886 1671.48 63.2001 1671.01 64.7086C1670.54 66.2171 1669.38 67.5018 1667.53 68.5625C1665.73 69.5743 1663.49 70.3878 1660.84 71.003C1658.23 71.6119 1655.37 72.1493 1652.26 72.6153L1647.59 73.3142C1642.31 74.1058 1638.15 74.1613 1635.13 73.4809C1632.15 72.7942 1630.34 70.2773 1629.69 65.9302L1641.26 64.1972C1641.46 65.5609 1642.08 66.3186 1643.1 66.4701C1644.16 66.5726 1645.06 66.5909 1645.79 66.525C1646.56 66.4527 1647.46 66.34 1648.49 66.1868L1653.74 65.4656C1654.89 65.2932 1655.93 65.0942 1656.85 64.8686C1657.78 64.6429 1658.6 64.3234 1659.32 63.9102C1660.08 63.448 1660.37 62.6202 1660.19 61.4269C1660.05 60.4893 1659.6 59.9469 1658.84 59.7997C1658.07 59.6099 1657.11 59.6012 1655.96 59.7735L1647.65 61.0183L1638.15 62.1796C1632.32 62.53 1628.99 59.935 1628.16 54.3946C1627.63 50.8999 1628.32 48.3782 1630.23 46.8295C1632.13 45.2808 1635.02 44.0424 1638.89 43.1142L1649.65 41.2403C1652.12 40.8701 1653.98 40.635 1655.23 40.5351C1656.47 40.3926 1658.19 40.3536 1660.38 40.418C1662.56 40.4398 1664.28 41.0101 1665.54 42.1291C1666.79 43.2054 1667.59 44.9582 1667.96 47.3875L1656.32 49.1301C1656.06 48.2543 1655.4 47.7864 1654.35 47.7265Z" fill="black"/>
</svg>
