<svg width="1440" height="758" viewBox="0 0 1440 758" fill="none" xmlns="http://www.w3.org/2000/svg">
<rect x="-71.0586" y="176.955" width="1594" height="136" transform="rotate(11.5562 -71.0586 176.955)" fill="#FFCF4E"/>
<path d="M-6.32718 189.839L7.87888 192.743L-32.0682 208.404L-46.2743 205.499L-6.32718 189.839Z" fill="black"/>
<path d="M23.0644 195.848L37.2705 198.753L-2.67663 214.414L-16.8827 211.509L23.0644 195.848Z" fill="black"/>
<path d="M52.4565 201.858L66.6626 204.763L26.7155 220.424L12.5094 217.519L52.4565 201.858Z" fill="black"/>
<path d="M81.8481 207.868L96.0542 210.773L56.1071 226.434L41.901 223.529L81.8481 207.868Z" fill="black"/>
<path d="M111.24 213.878L125.446 216.783L85.4991 232.444L71.2931 229.539L111.24 213.878Z" fill="black"/>
<path d="M140.632 219.888L154.838 222.793L114.891 238.454L100.685 235.549L140.632 219.888Z" fill="black"/>
<path d="M170.024 225.898L184.23 228.803L144.283 244.464L130.077 241.559L170.024 225.898Z" fill="black"/>
<path d="M199.415 231.908L213.622 234.812L173.674 250.473L159.468 247.569L199.415 231.908Z" fill="black"/>
<path d="M228.808 237.918L243.014 240.822L203.067 256.483L188.86 253.579L228.808 237.918Z" fill="black"/>
<path d="M258.199 243.927L272.405 246.832L232.458 262.493L218.252 259.588L258.199 243.927Z" fill="black"/>
<path d="M287.591 249.937L301.797 252.842L261.85 268.503L247.644 265.598L287.591 249.937Z" fill="black"/>
<path d="M316.983 255.947L331.189 258.852L291.242 274.513L277.036 271.608L316.983 255.947Z" fill="black"/>
<path d="M346.375 261.957L360.581 264.862L320.634 280.523L306.428 277.618L346.375 261.957Z" fill="black"/>
<path d="M375.767 267.967L389.973 270.872L350.026 286.533L335.819 283.628L375.767 267.967Z" fill="black"/>
<path d="M405.159 273.977L419.365 276.882L379.418 292.542L365.212 289.638L405.159 273.977Z" fill="black"/>
<path d="M434.55 279.987L448.756 282.892L408.809 298.552L394.603 295.648L434.55 279.987Z" fill="black"/>
<path d="M463.942 285.997L478.148 288.901L438.201 304.562L423.995 301.657L463.942 285.997Z" fill="black"/>
<path d="M493.334 292.006L507.54 294.911L467.593 310.572L453.387 307.667L493.334 292.006Z" fill="black"/>
<path d="M522.726 298.016L536.932 300.921L496.985 316.582L482.779 313.677L522.726 298.016Z" fill="black"/>
<path d="M552.118 304.026L566.324 306.931L526.377 322.592L512.171 319.687L552.118 304.026Z" fill="black"/>
<path d="M581.51 310.036L595.716 312.941L555.769 328.602L541.563 325.697L581.51 310.036Z" fill="black"/>
<path d="M610.902 316.046L625.108 318.951L585.161 334.612L570.955 331.707L610.902 316.046Z" fill="black"/>
<path d="M640.293 322.056L654.499 324.961L614.552 340.622L600.346 337.717L640.293 322.056Z" fill="black"/>
<path d="M669.686 328.066L683.892 330.971L643.944 346.632L629.738 343.727L669.686 328.066Z" fill="black"/>
<path d="M699.077 334.076L713.283 336.98L673.336 352.641L659.13 349.737L699.077 334.076Z" fill="black"/>
<path d="M728.469 340.086L742.675 342.99L702.728 358.651L688.522 355.747L728.469 340.086Z" fill="black"/>
<path d="M757.861 346.095L772.067 349L732.12 364.661L717.913 361.756L757.861 346.095Z" fill="black"/>
<path d="M787.253 352.105L801.459 355.01L761.512 370.671L747.306 367.766L787.253 352.105Z" fill="black"/>
<path d="M816.645 358.115L830.851 361.02L790.904 376.681L776.698 373.776L816.645 358.115Z" fill="black"/>
<path d="M846.036 364.125L860.242 367.03L820.295 382.691L806.089 379.786L846.036 364.125Z" fill="black"/>
<path d="M875.428 370.135L889.634 373.04L849.687 388.701L835.481 385.796L875.428 370.135Z" fill="black"/>
<path d="M904.82 376.145L919.026 379.049L879.079 394.71L864.873 391.806L904.82 376.145Z" fill="black"/>
<path d="M934.212 382.155L948.418 385.06L908.471 400.72L894.265 397.816L934.212 382.155Z" fill="black"/>
<path d="M963.604 388.164L977.81 391.069L937.863 406.73L923.657 403.825L963.604 388.164Z" fill="black"/>
<path d="M992.996 394.175L1007.2 397.079L967.255 412.74L953.049 409.835L992.996 394.175Z" fill="black"/>
<path d="M1022.39 400.184L1036.59 403.089L996.647 418.75L982.441 415.845L1022.39 400.184Z" fill="black"/>
<path d="M1051.78 406.194L1065.99 409.099L1026.04 424.76L1011.83 421.855L1051.78 406.194Z" fill="black"/>
<path d="M1081.17 412.204L1095.38 415.109L1055.43 430.77L1041.22 427.865L1081.17 412.204Z" fill="black"/>
<path d="M1110.56 418.214L1124.77 421.119L1084.82 436.779L1070.62 433.875L1110.56 418.214Z" fill="black"/>
<path d="M1139.95 424.224L1154.16 427.129L1114.21 442.789L1100.01 439.885L1139.95 424.224Z" fill="black"/>
<path d="M1169.35 430.234L1183.55 433.138L1143.61 448.799L1129.4 445.894L1169.35 430.234Z" fill="black"/>
<path d="M1198.74 436.244L1212.94 439.148L1173 454.809L1158.79 451.904L1198.74 436.244Z" fill="black"/>
<path d="M1228.13 442.254L1242.34 445.158L1202.39 460.819L1188.18 457.914L1228.13 442.254Z" fill="black"/>
<path d="M1257.52 448.263L1271.73 451.168L1231.78 466.829L1217.58 463.924L1257.52 448.263Z" fill="black"/>
<path d="M1286.91 454.273L1301.12 457.178L1261.17 472.839L1246.97 469.934L1286.91 454.273Z" fill="black"/>
<path d="M1316.31 460.283L1330.51 463.188L1290.57 478.849L1276.36 475.944L1316.31 460.283Z" fill="black"/>
<path d="M1345.7 466.293L1359.9 469.198L1319.96 484.859L1305.75 481.954L1345.7 466.293Z" fill="black"/>
<path d="M1375.09 472.303L1389.3 475.208L1349.35 490.869L1335.14 487.964L1375.09 472.303Z" fill="black"/>
<path d="M1404.48 478.313L1418.69 481.217L1378.74 496.878L1364.53 493.974L1404.48 478.313Z" fill="black"/>
<path d="M1433.87 484.323L1448.08 487.227L1408.13 502.888L1393.93 499.984L1433.87 484.323Z" fill="black"/>
<path d="M1463.27 490.332L1477.47 493.237L1437.52 508.898L1423.32 505.993L1463.27 490.332Z" fill="black"/>
<path d="M1.35958 301.997L15.5656 304.902L-25.2926 325.019L-39.4986 322.114L1.35958 301.997Z" fill="black"/>
<path d="M30.7514 308.007L44.9575 310.912L4.09929 331.028L-10.1068 328.124L30.7514 308.007Z" fill="black"/>
<path d="M60.1433 314.017L74.3493 316.922L33.4911 337.038L19.2851 334.134L60.1433 314.017Z" fill="black"/>
<path d="M89.5351 320.027L103.741 322.932L62.883 343.048L48.6769 340.143L89.5351 320.027Z" fill="black"/>
<path d="M118.927 326.037L133.133 328.942L92.2748 349.058L78.0688 346.153L118.927 326.037Z" fill="black"/>
<path d="M148.319 332.047L162.525 334.951L121.667 355.068L107.461 352.163L148.319 332.047Z" fill="black"/>
<path d="M177.711 338.057L191.917 340.961L151.059 361.078L136.852 358.173L177.711 338.057Z" fill="black"/>
<path d="M207.103 344.066L221.309 346.971L180.45 367.088L166.244 364.183L207.103 344.066Z" fill="black"/>
<path d="M236.494 350.076L250.7 352.981L209.842 373.098L195.636 370.193L236.494 350.076Z" fill="black"/>
<path d="M265.886 356.086L280.093 358.991L239.234 379.108L225.028 376.203L265.886 356.086Z" fill="black"/>
<path d="M295.278 362.096L309.484 365.001L268.626 385.118L254.42 382.213L295.278 362.096Z" fill="black"/>
<path d="M324.67 368.106L338.876 371.011L298.018 391.127L283.812 388.223L324.67 368.106Z" fill="black"/>
<path d="M354.062 374.116L368.268 377.021L327.41 397.137L313.204 394.233L354.062 374.116Z" fill="black"/>
<path d="M383.454 380.126L397.66 383.03L356.802 403.147L342.596 400.242L383.454 380.126Z" fill="black"/>
<path d="M412.846 386.135L427.052 389.04L386.194 409.157L371.987 406.252L412.846 386.135Z" fill="black"/>
<path d="M442.238 392.145L456.444 395.05L415.585 415.167L401.379 412.262L442.238 392.145Z" fill="black"/>
<path d="M471.629 398.155L485.835 401.06L444.977 421.177L430.771 418.272L471.629 398.155Z" fill="black"/>
<path d="M501.021 404.165L515.227 407.07L474.369 427.187L460.163 424.282L501.021 404.165Z" fill="black"/>
<path d="M530.413 410.175L544.619 413.08L503.761 433.196L489.555 430.292L530.413 410.175Z" fill="black"/>
<path d="M559.805 416.185L574.011 419.09L533.153 439.206L518.947 436.302L559.805 416.185Z" fill="black"/>
<path d="M589.197 422.195L603.403 425.1L562.545 445.216L548.339 442.311L589.197 422.195Z" fill="black"/>
<path d="M618.589 428.205L632.795 431.11L591.936 451.226L577.73 448.321L618.589 428.205Z" fill="black"/>
<path d="M647.98 434.215L662.186 437.119L621.328 457.236L607.122 454.331L647.98 434.215Z" fill="black"/>
<path d="M677.372 440.225L691.578 443.129L650.72 463.246L636.514 460.341L677.372 440.225Z" fill="black"/>
<path d="M706.764 446.234L720.97 449.139L680.112 469.256L665.906 466.351L706.764 446.234Z" fill="black"/>
<path d="M736.156 452.244L750.362 455.149L709.504 475.266L695.298 472.361L736.156 452.244Z" fill="black"/>
<path d="M765.548 458.254L779.754 461.159L738.896 481.275L724.69 478.371L765.548 458.254Z" fill="black"/>
<path d="M794.94 464.264L809.146 467.169L768.288 487.286L754.081 484.381L794.94 464.264Z" fill="black"/>
<path d="M824.332 470.274L838.538 473.179L797.68 493.295L783.474 490.39L824.332 470.274Z" fill="black"/>
<path d="M853.723 476.284L867.929 479.189L827.071 499.305L812.865 496.401L853.723 476.284Z" fill="black"/>
<path d="M883.115 482.294L897.322 485.198L856.463 505.315L842.257 502.41L883.115 482.294Z" fill="black"/>
<path d="M912.507 488.303L926.713 491.208L885.855 511.325L871.649 508.42L912.507 488.303Z" fill="black"/>
<path d="M941.899 494.313L956.105 497.218L915.247 517.335L901.041 514.43L941.899 494.313Z" fill="black"/>
<path d="M971.291 500.323L985.497 503.228L944.639 523.345L930.433 520.44L971.291 500.323Z" fill="black"/>
<path d="M1000.68 506.333L1014.89 509.238L974.031 529.355L959.825 526.45L1000.68 506.333Z" fill="black"/>
<path d="M1030.07 512.343L1044.28 515.248L1003.42 535.364L989.216 532.46L1030.07 512.343Z" fill="black"/>
<path d="M1059.47 518.353L1073.67 521.258L1032.81 541.374L1018.61 538.47L1059.47 518.353Z" fill="black"/>
<path d="M1088.86 524.363L1103.06 527.268L1062.21 547.384L1048 544.479L1088.86 524.363Z" fill="black"/>
<path d="M1118.25 530.373L1132.46 533.278L1091.6 553.394L1077.39 550.489L1118.25 530.373Z" fill="black"/>
<path d="M1147.64 536.383L1161.85 539.287L1120.99 559.404L1106.78 556.499L1147.64 536.383Z" fill="black"/>
<path d="M1177.03 542.393L1191.24 545.297L1150.38 565.414L1136.18 562.509L1177.03 542.393Z" fill="black"/>
<path d="M1206.43 548.402L1220.63 551.307L1179.77 571.424L1165.57 568.519L1206.43 548.402Z" fill="black"/>
<path d="M1235.82 554.412L1250.02 557.317L1209.17 577.434L1194.96 574.529L1235.82 554.412Z" fill="black"/>
<path d="M1265.21 560.422L1279.42 563.327L1238.56 583.443L1224.35 580.539L1265.21 560.422Z" fill="black"/>
<path d="M1294.6 566.432L1308.81 569.337L1267.95 589.453L1253.74 586.549L1294.6 566.432Z" fill="black"/>
<path d="M1323.99 572.442L1338.2 575.347L1297.34 595.463L1283.14 592.558L1323.99 572.442Z" fill="black"/>
<path d="M1353.38 578.452L1367.59 581.356L1326.73 601.473L1312.53 598.568L1353.38 578.452Z" fill="black"/>
<path d="M1382.78 584.462L1396.98 587.366L1356.12 607.483L1341.92 604.578L1382.78 584.462Z" fill="black"/>
<path d="M1412.17 590.471L1426.37 593.376L1385.52 613.493L1371.31 610.588L1412.17 590.471Z" fill="black"/>
<path d="M1441.56 596.481L1455.77 599.386L1414.91 619.503L1400.7 616.598L1441.56 596.481Z" fill="black"/>
<path d="M1470.95 602.491L1485.16 605.396L1444.3 625.513L1430.09 622.608L1470.95 602.491Z" fill="black"/>
<path d="M-76.312 218.217L-66.0655 220.378C-58.5504 221.915 -53.6753 224.209 -51.4404 227.261C-49.1632 230.322 -48.7886 235.589 -50.3167 243.062L-50.731 245.088C-52.5267 253.87 -54.8287 259.535 -57.6371 262.084C-60.4368 264.59 -66.2909 264.933 -75.1993 263.111L-84.9276 261.32L-88.9937 260.555L-97.6684 258.451C-102.566 257.449 -106.12 255.579 -108.331 252.84C-110.533 250.058 -111.13 246.198 -110.12 241.258L-108.653 233.442C-106.901 224.872 -104.659 219.502 -101.929 217.333C-99.1894 215.122 -93.7033 214.859 -85.4704 216.542L-76.312 218.217ZM-89.9472 249.407L-83.0702 250.945L-76.4709 252.229C-72.84 252.971 -70.1658 253.122 -68.4482 252.682C-66.6799 252.207 -65.4806 250.429 -64.8504 247.347L-63.5583 241.674C-63.1612 239.731 -62.9511 238.059 -62.9282 236.656C-62.8544 235.22 -63.1116 234.111 -63.6999 233.331C-64.2795 232.509 -65.2655 231.846 -66.6578 231.341C-68.0079 230.845 -69.4851 230.433 -71.0895 230.105L-83.895 227.553C-86.8082 226.957 -89.0852 226.799 -90.726 227.08C-92.3668 227.36 -93.5124 228.445 -94.1628 230.335C-94.7624 232.192 -95.1917 233.754 -95.4506 235.02L-95.6837 236.16L-96.0334 237.87C-96.8276 241.755 -96.9195 244.463 -96.3091 245.995C-95.6566 247.536 -93.5359 248.673 -89.9472 249.407ZM-30.2338 247.63C-28.7524 245.118 -26.8656 243.634 -24.5733 243.179C-22.281 242.724 -19.4672 242.838 -16.1318 243.52C-10.1366 244.746 -6.09637 246.605 -4.01114 249.099C-1.87506 251.559 -1.407 255.723 -2.60698 261.592L-5.77956 277.108L-16.799 274.855L-13.6264 259.339C-13.0911 256.721 -13.2947 254.92 -14.237 253.936C-15.1371 252.96 -17.0438 252.174 -19.9569 251.579L-21.2235 251.32C-24.4745 250.655 -26.9592 250.653 -28.6776 251.313C-30.3453 251.94 -31.5158 253.9 -32.1891 257.193L-32.3316 257.889L-35.038 271.125L-45.994 268.885L-39.9467 239.31L-28.9906 241.55L-30.2338 247.63ZM26.215 284.31L15.7166 281.767C10.6502 280.731 7.45151 278.736 6.12044 275.78C4.83159 272.834 4.74399 268.637 5.85763 263.191C6.87631 258.209 8.5898 254.777 10.9981 252.894C13.415 250.969 17.03 250.498 21.8431 251.483L32.268 253.416C35.3923 254.055 37.9543 254.755 39.954 255.516C41.9537 256.276 43.5673 257.42 44.7946 258.947C46.0219 260.473 46.6822 262.192 46.7754 264.102C46.9108 266.021 46.7412 268.142 46.2663 270.464C46.1628 270.97 46.0251 271.536 45.8534 272.161C45.7239 272.794 45.5771 273.512 45.4131 274.314L16.408 268.383C15.9332 270.705 16.0187 272.438 16.6646 273.582C17.319 274.683 18.7862 275.467 21.0661 275.933L27.2465 277.329C28.6398 277.614 29.8181 277.767 30.7815 277.788C31.7448 277.809 32.4175 277.639 32.7993 277.277C33.2234 276.924 33.5899 276.207 33.8988 275.126L44.7915 277.354C43.8851 281.787 41.8712 284.322 38.7499 284.959C35.6708 285.605 31.4925 285.389 26.215 284.31ZM25.9816 258.992C23.6595 258.518 21.7922 258.4 20.3798 258.639C18.976 258.836 18.0756 259.905 17.6785 261.847L17.5735 262.683L35.7491 266.4C36.1894 264.247 35.9466 262.745 35.0205 261.896C34.1032 261.005 32.4623 260.318 30.098 259.834L25.9816 258.992ZM86.5488 264.779L98.0633 266.87C102.623 267.802 105.989 269.194 108.162 271.046C110.376 272.906 111.061 275.905 110.215 280.043L106.136 299.992L95.1163 297.738L96.1005 292.925C94.7726 295.117 92.9251 296.301 90.558 296.476C88.2331 296.661 85.3185 296.395 81.8142 295.678L79.7877 295.264C75.059 294.297 71.6967 292.994 69.7008 291.354C67.7471 289.723 67.2105 286.754 68.0911 282.448C68.7299 279.324 70.0534 277.153 72.0616 275.936C74.1207 274.686 76.7124 274.38 79.8366 275.019C81.5091 275.229 83.1898 275.506 84.8786 275.852L86.5885 276.201L89.8183 276.862C92.0559 277.319 93.8537 277.885 95.2114 278.558C96.6114 279.241 97.6588 280.356 98.3537 281.906L99.0141 278.676C99.3766 276.903 99.2384 275.643 98.5993 274.897C97.9688 274.108 96.7459 273.528 94.9304 273.157L89.8899 271.994L86.2542 271.383C85.1987 271.167 84.3874 271.155 83.8204 271.347C83.2533 271.539 82.8705 272.12 82.6719 273.091L71.7792 270.864C72.4698 267.486 74.1436 265.432 76.8005 264.699C79.4996 263.976 82.749 264.002 86.5488 264.779ZM85.8352 289.243L86.7851 289.437C89.1916 289.929 91.1765 290.225 92.7395 290.325C94.3535 290.391 95.4401 290.239 95.9995 289.87C96.5589 289.5 96.9379 288.83 97.1364 287.859C97.3781 286.677 97.0523 285.796 96.159 285.218C95.3164 284.606 94.2197 284.162 92.8686 283.885L86.6249 282.477C84.6828 282.08 82.9973 281.933 81.5686 282.037C80.1485 282.098 79.2917 282.847 78.9982 284.282C78.7133 285.675 79.0511 286.712 80.0116 287.392C80.9808 288.03 82.3098 288.522 83.9986 288.867L85.8352 289.243ZM131.121 280.623C132.603 278.111 134.49 276.627 136.782 276.172C139.074 275.717 141.888 275.831 145.223 276.513C151.219 277.739 155.259 279.598 157.344 282.092C159.48 284.552 159.948 288.716 158.748 294.585L155.576 310.101L144.556 307.848L147.729 292.332C148.264 289.714 148.06 287.913 147.118 286.929C146.218 285.953 144.311 285.167 141.398 284.572L140.132 284.313C136.881 283.648 134.396 283.646 132.678 284.306C131.01 284.933 129.839 286.892 129.166 290.186L129.024 290.882L126.317 304.118L115.361 301.878L121.408 272.303L132.365 274.543L131.121 280.623ZM196.123 318.392L197.43 311.995C196.143 314.635 194.218 316.199 191.655 316.686C189.143 317.14 186.177 317.018 182.757 316.319C179.211 315.593 176.151 314.748 173.577 313.782C170.995 312.858 169.141 311.599 168.015 310.005C166.89 308.412 166.318 306.689 166.301 304.838C166.326 302.996 166.58 300.893 167.063 298.528L167.504 296.375C168.082 293.546 168.755 291.221 169.524 289.399C170.343 287.543 171.671 286.209 173.509 285.397C175.355 284.543 177.562 284.181 180.131 284.31C182.751 284.406 185.454 284.739 188.24 285.309C192.631 286.206 195.665 287.288 197.341 288.555C199.026 289.779 200.312 291.45 201.199 293.566L204.76 276.151L215.462 278.339L206.825 320.58L196.123 318.392ZM188.544 308.991C192.006 309.699 194.448 309.802 195.87 309.301C197.334 308.809 198.381 307.022 199.012 303.939C199.694 300.604 199.572 298.402 198.647 297.333C197.731 296.222 195.436 295.291 191.763 294.54L189.356 294.048C187.752 293.72 186.278 293.506 184.935 293.408C183.633 293.318 182.547 293.469 181.675 293.863C180.802 294.256 180.17 294.875 179.778 295.718C179.385 296.562 179.051 297.659 178.775 299.01C178.119 302.219 178.177 304.408 178.949 305.577C179.722 306.747 181.713 307.66 184.921 308.316L188.544 308.991ZM268.415 288.705L278.662 290.866C286.177 292.402 291.052 294.697 293.287 297.749C295.564 300.81 295.939 306.077 294.411 313.549L293.996 315.576C292.201 324.358 289.899 330.023 287.09 332.572C284.291 335.078 278.436 335.421 269.528 333.599L259.8 331.808L255.734 331.042L247.059 328.939C242.161 327.937 238.607 326.067 236.396 323.328C234.194 320.546 233.598 316.686 234.608 311.746L236.074 303.93C237.826 295.36 240.068 289.99 242.799 287.821C245.538 285.61 251.024 285.347 259.257 287.03L268.415 288.705ZM254.78 319.895L261.657 321.433L268.256 322.717C271.887 323.459 274.562 323.61 276.279 323.17C278.047 322.695 279.247 320.917 279.877 317.835L281.169 312.161C281.566 310.219 281.776 308.547 281.799 307.144C281.873 305.708 281.616 304.599 281.027 303.819C280.448 302.997 279.462 302.334 278.07 301.829C276.719 301.333 275.242 300.921 273.638 300.593L260.832 298.04C257.919 297.445 255.642 297.287 254.001 297.567C252.361 297.848 251.215 298.933 250.565 300.823C249.965 302.68 249.536 304.242 249.277 305.508L249.044 306.648L248.694 308.358C247.9 312.242 247.808 314.951 248.418 316.483C249.071 318.024 251.191 319.161 254.78 319.895ZM314.494 318.118C315.975 315.606 317.862 314.122 320.154 313.667C322.446 313.212 325.26 313.326 328.596 314.008C334.591 315.233 338.631 317.093 340.716 319.587C342.852 322.047 343.32 326.211 342.12 332.08L338.948 347.596L327.928 345.343L331.101 329.827C331.636 327.209 331.433 325.408 330.49 324.424C329.59 323.448 327.684 322.662 324.77 322.066L323.504 321.807C320.253 321.143 317.768 321.141 316.05 321.801C314.382 322.427 313.212 324.387 312.538 327.681L312.396 328.377L309.689 341.613L298.733 339.373L304.781 309.798L315.737 312.038L314.494 318.118ZM348.21 349.49L356.847 307.249L367.803 309.489L359.166 351.73L348.21 349.49ZM376.453 369.252L372.388 368.157L373.916 360.684L376.31 361.239C378.378 361.662 379.875 361.55 380.799 360.904C381.714 360.299 382.869 358.952 384.264 356.862L379.768 355.942L372.263 323.596L384.422 326.082L388.644 349.642L402.661 329.812L414.82 332.298L389.918 365.671C388.108 368.072 386.268 369.433 384.399 369.755C382.563 370.127 379.915 369.96 376.453 369.252ZM427.34 365.67L413.028 362.743L445.224 325.319L462.576 328.867L476.991 375.822L462.805 372.921L460.382 364.443L433.087 358.861L427.34 365.67ZM439.371 351.041L457.483 354.745L451.845 336.174L439.371 351.041ZM525.379 387.036C524.611 390.793 522.824 393.507 520.019 395.177C517.206 396.889 513.942 397.365 510.227 396.605C508.841 396.498 507.211 396.296 505.336 396.001C503.503 395.714 501.721 395.394 499.99 395.04C494.206 393.857 489.776 392.292 486.699 390.343C483.665 388.403 482.627 385.09 483.586 380.403L494.732 382.682C494.55 383.569 494.788 384.343 495.444 385.005C496.143 385.676 497.307 386.222 498.936 386.643C500.557 387.106 501.557 387.377 501.937 387.455L503.267 387.727C505.378 388.158 507.287 388.395 508.994 388.436C510.701 388.477 511.911 388.152 512.624 387.463C513.337 386.773 513.809 386.077 514.04 385.377C514.313 384.685 514.545 383.875 514.735 382.946L515.9 377.246C514.566 379.041 512.929 380.267 510.991 380.927C509.053 381.586 505.931 381.476 501.624 380.595C494.489 379.136 489.769 377.269 487.463 374.994C485.208 372.686 484.775 368.133 486.165 361.335C486.994 357.282 488.258 354.22 489.957 352.148C491.665 350.034 493.934 349.047 496.765 349.186C499.637 349.333 502.26 349.628 504.633 350.069C507.006 350.51 508.678 350.83 509.649 351.028C512.9 351.693 515.233 352.544 516.649 353.581C518.073 354.576 519.041 356.511 519.552 359.387L520.666 353.941L531.685 356.194L525.754 385.199L525.379 387.036ZM505.942 373.033L506.892 373.227C509.045 373.667 510.645 373.906 511.693 373.945C512.75 373.941 513.705 373.784 514.56 373.475C515.424 373.124 516.047 372.548 516.431 371.747C516.857 370.954 517.178 370.03 517.394 368.974L517.692 367.518C518.132 365.365 518.105 363.776 517.611 362.751C517.167 361.693 515.848 360.939 513.653 360.49L507.852 359.172L505.952 358.784C504.517 358.49 503.296 358.328 502.291 358.299C501.285 358.269 500.435 358.447 499.74 358.833C499.046 359.219 498.511 359.791 498.136 360.55C497.811 361.276 497.567 362.039 497.403 362.842L497.183 363.918C496.725 366.156 496.689 367.842 497.072 368.976C497.456 370.11 498.577 370.977 500.433 371.576C502.341 372.142 503.565 372.503 504.105 372.657C504.654 372.769 505.266 372.894 505.942 373.033ZM557.531 392.95L547.032 390.408C541.966 389.372 538.767 387.376 537.436 384.421C536.147 381.474 536.059 377.278 537.173 371.831C538.192 366.849 539.905 363.417 542.314 361.534C544.73 359.609 548.345 359.139 553.159 360.123L563.584 362.057C566.708 362.695 569.27 363.395 571.269 364.156C573.269 364.917 574.883 366.06 576.11 367.587C577.337 369.113 577.998 370.832 578.091 372.742C578.226 374.661 578.057 376.782 577.582 379.104C577.478 379.611 577.341 380.176 577.169 380.801C577.039 381.434 576.893 382.152 576.729 382.954L547.724 377.023C547.249 379.346 547.334 381.078 547.98 382.222C548.635 383.324 550.102 384.108 552.382 384.574L558.562 385.969C559.955 386.254 561.134 386.407 562.097 386.428C563.06 386.449 563.733 386.279 564.115 385.917C564.539 385.564 564.905 384.847 565.214 383.767L576.107 385.994C575.201 390.427 573.187 392.962 570.065 393.6C566.986 394.246 562.808 394.029 557.531 392.95ZM557.297 367.633C554.975 367.158 553.108 367.04 551.695 367.279C550.292 367.476 549.391 368.545 548.994 370.488L548.889 371.324L567.065 375.04C567.505 372.887 567.262 371.386 566.336 370.537C565.419 369.645 563.778 368.958 561.413 368.475L557.297 367.633ZM598.241 376.137C599.722 373.625 601.609 372.141 603.902 371.686C606.194 371.231 609.008 371.345 612.343 372.027C618.338 373.253 622.379 375.112 624.464 377.606C626.6 380.066 627.068 384.23 625.868 390.099L622.695 405.615L611.676 403.362L614.849 387.846C615.384 385.228 615.18 383.427 614.238 382.443C613.338 381.467 611.431 380.681 608.518 380.086L607.251 379.827C604 379.162 601.516 379.16 599.797 379.82C598.13 380.447 596.959 382.406 596.286 385.7L596.143 386.396L593.437 399.632L582.481 397.392L588.528 367.817L599.484 370.057L598.241 376.137ZM669.397 412.525C667.474 413.539 664.954 413.926 661.836 413.684C658.761 413.451 655.45 412.972 651.903 412.247C646.837 411.211 642.971 410.113 640.305 408.952C637.64 407.791 635.712 405.923 634.523 403.349C633.343 400.732 633.245 397.018 634.229 392.204C635.222 387.349 636.855 383.988 639.128 382.122C641.443 380.264 644.987 379.603 649.76 380.139L660.236 381.82C666.485 383.097 670.906 384.705 673.501 386.643C676.096 388.581 676.836 392.274 675.723 397.72L664.703 395.467C664.732 394.681 664.705 394.06 664.623 393.603C664.549 393.104 664.297 392.613 663.868 392.129C663.439 391.645 662.647 391.219 661.491 390.851C660.385 390.449 659.178 390.114 657.869 389.847L656.096 389.484C654.323 389.122 652.786 388.895 651.484 388.805C650.226 388.724 649.181 388.884 648.351 389.286C647.521 389.688 646.872 390.281 646.404 391.065C645.978 391.858 645.597 393.077 645.26 394.724C644.587 398.017 644.907 400.216 646.22 401.32C647.534 402.424 650.049 403.356 653.764 404.116C656.17 404.608 658.012 404.853 659.288 404.85C660.606 404.856 661.524 404.669 662.041 404.291C662.567 403.871 662.915 403.458 663.086 403.053C663.299 402.657 663.479 402.1 663.626 401.382L674.772 403.661C674.306 405.941 673.71 407.777 672.986 409.168C672.27 410.517 671.074 411.636 669.397 412.525ZM688.649 433.088L684.585 431.993L686.113 424.52L688.506 425.075C690.575 425.498 692.071 425.387 692.995 424.74C693.911 424.135 695.066 422.788 696.461 420.698L691.964 419.779L684.459 387.432L696.618 389.919L700.84 413.478L714.857 393.648L727.017 396.134L702.115 429.507C700.304 431.908 698.465 433.27 696.596 433.591C694.76 433.964 692.111 433.796 688.649 433.088ZM779.562 437.69L777.373 419.032L767.655 435.255L752.583 432.173L747.864 400.397L759.454 402.767L761.837 426.28L774.589 405.862L785.039 407.998L788.562 431.745L800.238 411.106L811.954 413.502L794.951 440.837L779.562 437.69ZM820.542 410.375L822.173 402.396L833.129 404.636L831.498 412.616L820.542 410.375ZM813.536 444.637L819.583 415.062L830.539 417.302L824.492 446.877L813.536 444.637ZM853.199 429.523L851.269 438.959C850.872 440.901 850.887 442.334 851.314 443.257C851.783 444.188 852.947 444.844 854.805 445.224C856.451 445.561 857.689 445.528 858.519 445.126C859.392 444.732 859.987 443.754 860.307 442.192L860.579 440.862L869.128 442.611C868.058 447.846 866.484 451.241 864.407 452.795C862.38 454.316 858.665 454.524 853.261 453.419C846.632 452.064 842.473 450.356 840.783 448.295C839.102 446.192 838.62 443.388 839.336 439.884L841.926 427.218L836.29 426.065L837.779 418.782L843.415 419.935L844.891 412.715L856.164 415.02L854.688 422.24L872.547 425.891L871.058 433.174L853.199 429.523ZM904.806 431.828C910.464 432.985 914.496 434.777 916.903 437.204C919.309 439.632 919.96 443.548 918.855 448.952L915.475 465.481L904.519 463.241L907.537 448.485C908.141 445.529 908.137 443.505 907.525 442.412C906.963 441.286 904.761 440.33 900.919 439.544L900.223 439.402C896.761 438.694 894.196 438.653 892.528 439.28C890.903 439.915 889.775 441.774 889.145 444.856L888.666 447.199L886.154 459.485L875.198 457.245L883.835 415.004L894.791 417.244L891.165 434.977C892.763 432.752 894.603 431.501 896.683 431.223C898.805 430.953 901.513 431.155 904.806 431.828ZM956.229 460.486C955.875 462.217 956.22 463.432 957.265 464.129C958.361 464.793 959.943 465.336 962.012 465.759L968.079 467.066L976.743 468.574C979.108 469.057 980.709 469.077 981.548 468.632C982.386 468.188 982.935 467.333 983.194 466.066C983.427 464.926 983.191 463.932 982.484 463.084C981.82 462.244 980.327 461.587 978.005 461.112L975.915 460.685L954.854 455.917C950.885 455.105 948.28 453.539 947.04 451.218C945.85 448.863 945.678 445.617 946.524 441.48C947.24 437.975 948.304 435.356 949.714 433.621C951.167 431.895 953.313 430.97 956.153 430.847C959.044 430.69 962.698 430.998 967.115 431.769C971.574 432.549 974.563 433.094 976.083 433.405L985.05 435.37C988.639 436.104 991.471 436.991 993.545 438.031C995.628 439.029 996.958 440.378 997.534 442.079C998.152 443.789 998.462 445.282 998.465 446.558C998.468 447.834 998.25 449.549 997.809 451.702L985.207 449.125C985.509 447.648 985.277 446.523 984.511 445.75C983.788 444.987 982.645 444.445 981.083 444.126L974.889 442.793L965.008 441.103C963.7 440.835 962.529 440.86 961.497 441.176C960.515 441.459 959.908 442.171 959.675 443.311C959.355 444.873 959.671 446.015 960.623 446.738C961.626 447.427 963.056 447.961 964.914 448.341L966.244 448.613L974.831 450.501L983.304 452.299C988.75 453.413 992.521 455.086 994.616 457.317C996.761 459.515 997.308 463.19 996.255 468.341C995.236 473.323 993.418 476.514 990.8 477.914C988.225 479.323 984.383 479.505 979.274 478.46L962.718 475.537L954.144 473.585C949.584 472.653 946.379 471.228 944.528 469.31C942.677 467.392 942.209 464.195 943.124 459.72L943.642 457.187L956.308 459.777L956.229 460.486ZM1032.48 489.406L1033.73 483.326C1032.51 485.848 1030.56 487.319 1027.88 487.738C1025.25 488.124 1022.24 487.972 1018.86 487.281C1013.38 486.159 1009.52 484.38 1007.29 481.945C1005.07 479.468 1004.5 475.569 1005.59 470.249L1008.96 453.784L1019.91 456.024L1016.75 471.476C1016.17 474.305 1016.5 476.263 1017.73 477.35C1018.97 478.395 1021.15 479.237 1024.27 479.876C1027.69 480.575 1030.27 480.531 1032.02 479.744C1033.81 478.924 1035.04 476.909 1035.7 473.7L1035.88 472.814L1038.53 459.831L1049.49 462.071L1043.44 491.646L1032.48 489.406ZM1068.73 470.953C1069.35 470.068 1070 469.323 1070.7 468.718C1071.4 468.112 1072.34 467.711 1073.52 467.513C1074.7 467.315 1076.07 467.287 1077.63 467.429C1079.22 467.58 1081.06 467.867 1083.13 468.29C1089.54 469.602 1094.01 471.286 1096.54 473.342C1099.08 475.356 1099.76 479.234 1098.58 484.976L1097.84 488.585C1097.35 490.992 1096.79 492.988 1096.16 494.574C1095.53 496.161 1094.38 497.554 1092.73 498.756C1091.13 499.924 1088.99 500.477 1086.32 500.414C1083.7 500.319 1080.58 499.899 1076.95 499.157C1073.61 498.475 1070.87 497.563 1068.73 496.422C1066.64 495.246 1065.29 493.364 1064.67 490.775L1060.97 508.888L1050.01 506.648L1058.74 463.963L1069.7 466.203L1068.73 470.953ZM1076.78 490.612C1080.45 491.363 1082.93 491.407 1084.21 490.745C1085.5 490.041 1086.49 487.958 1087.2 484.496C1087.69 482.089 1087.63 480.339 1087.02 479.247C1086.42 478.112 1084.87 477.289 1082.38 476.78L1075.18 475.177C1073.62 474.858 1072.44 474.705 1071.65 474.718C1070.86 474.732 1070.12 474.889 1069.44 475.19C1068.81 475.5 1068.3 476.056 1067.91 476.857C1067.53 477.658 1067.22 478.629 1066.99 479.769L1066.76 480.909C1066.23 483.484 1066.25 485.424 1066.82 486.728C1067.4 487.99 1068.91 488.871 1071.36 489.372L1076.78 490.612ZM1126.26 509.241L1115.76 506.699C1110.7 505.663 1107.5 503.667 1106.17 500.712C1104.88 497.765 1104.79 493.569 1105.91 488.122C1106.92 483.14 1108.64 479.708 1111.05 477.825C1113.46 475.9 1117.08 475.43 1121.89 476.414L1132.32 478.348C1135.44 478.987 1138 479.686 1140 480.447C1142 481.208 1143.61 482.352 1144.84 483.878C1146.07 485.405 1146.73 487.123 1146.82 489.033C1146.96 490.953 1146.79 493.073 1146.31 495.395C1146.21 495.902 1146.07 496.467 1145.9 497.092C1145.77 497.725 1145.62 498.443 1145.46 499.245L1116.46 493.315C1115.98 495.637 1116.07 497.37 1116.71 498.513C1117.37 499.615 1118.83 500.399 1121.11 500.865L1127.29 502.261C1128.69 502.545 1129.87 502.698 1130.83 502.719C1131.79 502.74 1132.47 502.57 1132.85 502.208C1133.27 501.855 1133.64 501.138 1133.95 500.058L1144.84 502.285C1143.93 506.718 1141.92 509.254 1138.8 509.891C1135.72 510.537 1131.54 510.32 1126.26 509.241ZM1126.03 483.924C1123.71 483.449 1121.84 483.331 1120.43 483.57C1119.02 483.767 1118.12 484.837 1117.73 486.779L1117.62 487.615L1135.8 491.331C1136.24 489.178 1135.99 487.677 1135.07 486.828C1134.15 485.937 1132.51 485.249 1130.15 484.766L1126.03 483.924ZM1167.01 492.238C1168.33 489.869 1170.05 488.439 1172.18 487.95C1174.35 487.427 1176.94 487.472 1179.94 488.085C1184.49 489.017 1187.48 490.462 1188.88 492.421C1190.28 494.379 1190.53 497.596 1189.61 502.071L1189.22 503.971L1179.03 501.886C1179.01 501.751 1179.04 501.514 1179.11 501.177C1179.34 499.158 1179.07 497.804 1178.29 497.116C1177.55 496.395 1176.03 495.797 1173.71 495.322C1171.05 494.778 1169.06 495.12 1167.76 496.349C1166.46 497.535 1165.51 499.563 1164.93 502.434L1162.17 515.923L1151.21 513.683L1157.26 484.108L1168.22 486.348L1167.01 492.238ZM1218.94 496.127L1230.32 498.914C1234.19 500.19 1236.68 501.976 1237.8 504.271C1238.96 506.532 1239.12 509.732 1238.28 513.869L1238.02 515.136C1236.79 521.131 1235.29 525.025 1233.52 526.818C1231.74 528.61 1227.8 529.168 1221.7 528.491L1209.61 526.284C1203.19 524.972 1198.87 523.229 1196.63 521.056C1194.43 518.891 1193.95 514.811 1195.17 508.816L1195.53 507.043C1196.3 503.285 1197.24 500.399 1198.36 498.384C1199.48 496.369 1201.26 495.172 1203.71 494.794C1206.22 494.382 1208.98 494.419 1212 494.906C1215.07 495.401 1217.38 495.808 1218.94 496.127ZM1214.5 518.838L1215.7 519.084C1217.73 519.498 1219.37 519.768 1220.62 519.891C1221.91 520.024 1222.92 519.922 1223.65 519.587C1224.43 519.219 1225.02 518.702 1225.42 518.036C1225.87 517.336 1226.25 516.226 1226.56 514.706L1227.01 512.49C1227.29 511.139 1227.37 510.121 1227.24 509.436C1227.13 508.708 1226.76 508.018 1226.15 507.365C1225.53 506.711 1224.48 506.145 1223 505.665C1221.51 505.185 1219.8 504.747 1217.86 504.35C1215.92 503.953 1214.25 503.722 1212.85 503.657C1211.47 503.549 1210.28 503.747 1209.3 504.25C1208.36 504.761 1207.7 505.637 1207.31 506.878C1206.93 508.077 1206.67 509.035 1206.53 509.752C1206.27 511.019 1206.13 512.223 1206.12 513.364C1206.11 514.462 1206.41 515.359 1207.02 516.055C1207.62 516.751 1208.82 517.347 1210.61 517.845C1212.44 518.352 1213.74 518.683 1214.5 518.838ZM1302.48 500.607C1308.86 501.911 1313.06 503.847 1315.09 506.417C1317.15 508.995 1317.55 513.408 1316.27 519.657C1315.06 525.567 1313.24 529.549 1310.79 531.6C1308.4 533.618 1304.15 534.002 1298.02 532.75L1294.73 532.076L1274.65 527.971L1272.51 538.484L1259.65 535.855L1268.29 493.614L1302.48 500.607ZM1303.2 517.445C1303.68 515.081 1303.49 513.436 1302.62 512.511C1301.77 511.544 1300.07 510.802 1297.54 510.284L1279.04 506.503L1276.75 517.712L1295.43 521.532C1297.88 522.033 1299.66 522.045 1300.77 521.568C1301.93 521.057 1302.74 519.683 1303.2 517.445ZM1344.99 521.899L1356.36 524.686C1360.23 525.962 1362.73 527.748 1363.84 530.043C1365.01 532.305 1365.16 535.504 1364.32 539.642L1364.06 540.908C1362.83 546.904 1361.33 550.797 1359.56 552.59C1357.79 554.382 1353.84 554.94 1347.74 554.263L1335.65 552.056C1329.24 550.744 1324.91 549.001 1322.67 546.828C1320.47 544.663 1319.99 540.584 1321.21 534.588L1321.58 532.815C1322.34 529.058 1323.29 526.171 1324.4 524.156C1325.52 522.141 1327.3 520.944 1329.75 520.566C1332.26 520.154 1335.02 520.192 1338.04 520.678C1341.11 521.173 1343.42 521.58 1344.99 521.899ZM1340.54 544.61L1341.74 544.856C1343.77 545.271 1345.41 545.54 1346.66 545.663C1347.95 545.796 1348.96 545.694 1349.69 545.36C1350.47 544.991 1351.06 544.474 1351.46 543.808C1351.91 543.108 1352.29 541.999 1352.6 540.479L1353.05 538.262C1353.33 536.911 1353.41 535.893 1353.28 535.208C1353.17 534.481 1352.8 533.79 1352.19 533.137C1351.58 532.483 1350.53 531.917 1349.04 531.437C1347.55 530.958 1345.84 530.519 1343.9 530.122C1341.96 529.725 1340.29 529.494 1338.89 529.429C1337.51 529.321 1336.32 529.519 1335.34 530.022C1334.4 530.533 1333.74 531.41 1333.35 532.65C1332.98 533.849 1332.71 534.807 1332.57 535.525C1332.31 536.791 1332.17 537.995 1332.16 539.136C1332.15 540.234 1332.45 541.132 1333.06 541.827C1333.67 542.523 1334.86 543.12 1336.65 543.617C1338.48 544.124 1339.78 544.455 1340.54 544.61ZM1405.01 565.577L1402.82 546.92L1393.1 563.143L1378.03 560.061L1373.31 528.284L1384.9 530.654L1387.28 554.168L1400.03 533.749L1410.48 535.886L1414.01 559.632L1425.68 538.993L1437.4 541.389L1420.4 568.724L1405.01 565.577ZM1461.71 577.832L1451.21 575.29C1446.15 574.254 1442.95 572.258 1441.62 569.303C1440.33 566.356 1440.24 562.16 1441.36 556.713C1442.37 551.731 1444.09 548.299 1446.5 546.416C1448.91 544.491 1452.53 544.021 1457.34 545.005L1467.77 546.939C1470.89 547.578 1473.45 548.277 1475.45 549.038C1477.45 549.799 1479.07 550.943 1480.29 552.469C1481.52 553.996 1482.18 555.714 1482.27 557.624C1482.41 559.544 1482.24 561.664 1481.76 563.986C1481.66 564.493 1481.52 565.059 1481.35 565.683C1481.22 566.316 1481.08 567.034 1480.91 567.836L1451.91 561.906C1451.43 564.228 1451.52 565.961 1452.16 567.104C1452.82 568.206 1454.28 568.99 1456.56 569.456L1462.74 570.852C1464.14 571.136 1465.32 571.289 1466.28 571.31C1467.24 571.331 1467.92 571.161 1468.3 570.799C1468.72 570.446 1469.09 569.729 1469.4 568.649L1480.29 570.876C1479.38 575.309 1477.37 577.845 1474.25 578.482C1471.17 579.128 1466.99 578.911 1461.71 577.832ZM1461.48 552.515C1459.16 552.04 1457.29 551.922 1455.88 552.161C1454.47 552.358 1453.57 553.428 1453.18 555.37L1453.07 556.206L1471.25 559.922C1471.69 557.769 1471.44 556.268 1470.52 555.419C1469.6 554.528 1467.96 553.84 1465.6 553.357L1461.48 552.515ZM1502.46 560.829C1503.78 558.46 1505.5 557.03 1507.63 556.541C1509.8 556.018 1512.39 556.063 1515.39 556.676C1519.95 557.608 1522.93 559.053 1524.33 561.012C1525.73 562.97 1525.98 566.187 1525.06 570.662L1524.67 572.562L1514.48 570.477C1514.46 570.342 1514.49 570.105 1514.56 569.768C1514.79 567.749 1514.52 566.395 1513.74 565.707C1513 564.986 1511.48 564.388 1509.16 563.913C1506.5 563.369 1504.51 563.711 1503.21 564.94C1501.91 566.126 1500.96 568.154 1500.38 571.025L1497.62 584.514L1486.66 582.274L1492.71 552.699L1503.67 554.939L1502.46 560.829ZM1558.86 572.889C1558.3 572.599 1557.71 572.368 1557.09 572.197C1556.46 572.025 1555.71 571.848 1554.82 571.667L1550.07 570.696C1549.35 570.549 1548.67 570.432 1548.03 570.345C1547.4 570.215 1546.71 570.14 1545.97 570.12C1545.27 570.067 1544.65 570.203 1544.1 570.531C1543.59 570.867 1543.27 571.351 1543.14 571.984C1542.97 572.829 1543.2 573.447 1543.82 573.838C1544.45 574.23 1545.31 574.538 1546.4 574.762L1558.49 577.299C1563.22 578.266 1566.66 579.476 1568.83 580.931C1571 582.343 1571.69 585.012 1570.89 588.939C1570.38 591.43 1569.64 593.303 1568.68 594.558C1567.72 595.813 1566.19 596.622 1564.09 596.985C1562.05 597.314 1559.67 597.313 1556.97 596.98C1554.31 596.656 1551.44 596.178 1548.36 595.548L1543.73 594.603C1538.5 593.532 1534.58 592.159 1531.97 590.483C1529.41 588.816 1528.57 585.829 1529.45 581.522L1540.91 583.866C1540.64 585.217 1540.95 586.14 1541.86 586.634C1542.83 587.094 1543.66 587.419 1544.37 587.608C1545.12 587.806 1546 588.008 1547.02 588.215L1552.2 589.34C1553.34 589.573 1554.38 589.743 1555.33 589.848C1556.27 589.954 1557.16 589.936 1557.98 589.796C1558.85 589.622 1559.4 588.945 1559.65 587.762C1559.84 586.834 1559.6 586.169 1558.93 585.769C1558.27 585.327 1557.38 584.989 1556.24 584.756L1548 583.072L1538.68 580.903C1533.09 579.231 1530.85 575.65 1531.97 570.162C1532.68 566.7 1534.19 564.568 1536.51 563.767C1538.83 562.965 1541.97 562.793 1545.92 563.249L1556.68 565.184C1559.12 565.685 1560.95 566.103 1562.16 566.438C1563.37 566.73 1565 567.282 1567.03 568.094C1569.07 568.863 1570.49 569.989 1571.29 571.472C1572.1 572.912 1572.25 574.835 1571.76 577.242L1560.23 574.885C1560.29 573.972 1559.83 573.307 1558.86 572.889Z" fill="black"/>
<circle cx="542" cy="379" r="379" fill="url(#paint0_radial_4268_6980)"/>
<defs>
<radialGradient id="paint0_radial_4268_6980" cx="0" cy="0" r="1" gradientUnits="userSpaceOnUse" gradientTransform="translate(542 379) rotate(90) scale(379)">
<stop/>
<stop offset="1" stop-opacity="0"/>
</radialGradient>
</defs>
</svg>
