<svg width="126" height="111" viewBox="0 0 126 111" fill="none" xmlns="http://www.w3.org/2000/svg">
<path d="M81.9491 11.3154V49.4216H43.9971V11.3154H81.9491ZM93.2187 0H32.7275V60.737H93.2187V0Z" fill="black"/>
<path d="M44.0707 70.2985H0V35.0477H27.69V53.8612H16.4204V46.3631H11.2696V58.9831H32.8011V39.7137H44.0707V70.2985Z" fill="black"/>
<path d="M60.4476 110.727H16.377V75.4767H44.067V94.2869H32.7974V86.7921H27.6465V99.4121H49.1781V51.4548H60.4476V110.727Z" fill="black"/>
<path d="M81.9326 70.2985H126V35.0477H98.31V53.8612H109.58V46.3631H114.73V58.9831H93.2022V39.7137H81.9326V70.2985Z" fill="black"/>
<path d="M65.5557 110.727H109.623V75.4767H81.933V94.2869H93.2026V86.7921H98.3535V99.4121H76.8252V51.4548H65.5557V110.727Z" fill="black"/>
</svg>
