<svg width="194" height="48" viewBox="0 0 194 48" fill="none" xmlns="http://www.w3.org/2000/svg">
<path d="M77.5548 17.7032L81.2132 17.7257C83.893 17.7257 85.7223 18.1699 86.7009 19.0581C87.6945 19.9464 88.1913 21.7229 88.1913 24.3877V25.1104C88.1913 28.2419 87.7999 30.3421 87.017 31.411C86.2341 32.4649 84.2544 32.9918 81.0777 32.9918L77.6225 33.0596L76.1772 33.0822L73.0607 32.9692C71.3143 32.9692 69.9669 32.5778 69.0184 31.7949C68.0699 30.997 67.5957 29.7173 67.5957 27.9558L67.5505 25.1781C67.5505 22.1219 67.9419 20.1271 68.7248 19.1936C69.5077 18.2451 71.367 17.7709 74.3028 17.7709L77.5548 17.7032ZM75.0706 29.3334L77.5322 29.3785L79.8808 29.356C81.1756 29.356 82.1015 29.2205 82.6585 28.9495C83.2306 28.6634 83.5167 27.9709 83.5167 26.8718L83.5618 24.8394C83.5618 24.1468 83.5167 23.5597 83.4263 23.0779C83.3511 22.5811 83.1854 22.2197 82.9295 21.9939C82.6736 21.753 82.2897 21.5949 81.7778 21.5197C81.2809 21.4444 80.7465 21.4068 80.1744 21.4068L75.6126 21.4293C74.5738 21.4293 73.7834 21.5347 73.2414 21.7455C72.6994 21.9563 72.3833 22.4079 72.2929 23.1005C72.2176 23.778 72.18 24.3425 72.18 24.7942V25.2007V25.8104C72.18 27.1955 72.3381 28.129 72.6543 28.6107C72.9855 29.0925 73.7909 29.3334 75.0706 29.3334ZM104.644 32.0208C104.057 32.5025 103.221 32.8112 102.137 32.9467C101.068 33.0822 99.9017 33.1499 98.637 33.1499C96.8304 33.1499 95.4302 33.0445 94.4366 32.8337C93.4429 32.623 92.6525 32.1186 92.0654 31.3207C91.4782 30.5077 91.1846 29.243 91.1846 27.5267C91.1846 25.7954 91.5083 24.5307 92.1557 23.7328C92.8181 22.9349 93.9849 22.4606 95.6561 22.3101L99.3597 22.152C101.588 22.152 103.214 22.3929 104.238 22.8747C105.261 23.3564 105.773 24.5684 105.773 26.5105H101.844C101.799 26.2395 101.746 26.0287 101.686 25.8782C101.625 25.7126 101.505 25.562 101.324 25.4265C101.144 25.291 100.843 25.2007 100.421 25.1555C100.015 25.0953 99.578 25.0652 99.1113 25.0652H98.4789C97.8466 25.0652 97.3046 25.0953 96.853 25.1555C96.4164 25.2158 96.0701 25.3437 95.8141 25.5394C95.5582 25.7352 95.3775 25.9836 95.2722 26.2847C95.1818 26.5858 95.1367 27.0299 95.1367 27.6171C95.1367 28.7914 95.4001 29.5216 95.9271 29.8076C96.454 30.0937 97.3799 30.2367 98.7048 30.2367C99.5629 30.2367 100.21 30.1915 100.647 30.1012C101.099 30.0109 101.4 29.8829 101.55 29.7173C101.701 29.5366 101.791 29.371 101.821 29.2205C101.866 29.0699 101.889 28.8667 101.889 28.6107H105.864C105.864 29.4237 105.788 30.0937 105.638 30.6206C105.487 31.1325 105.156 31.5992 104.644 32.0208ZM114.141 24.9749V28.3397C114.141 29.0323 114.246 29.5216 114.457 29.8076C114.683 30.0937 115.127 30.2367 115.789 30.2367C116.377 30.2367 116.798 30.1388 117.054 29.9431C117.325 29.7474 117.461 29.371 117.461 28.814V28.3397H120.509C120.509 30.2066 120.208 31.4788 119.606 32.1563C119.019 32.8187 117.762 33.1499 115.835 33.1499C113.471 33.1499 111.928 32.8563 111.205 32.2692C110.482 31.667 110.121 30.7411 110.121 29.4915V24.9749H108.111V22.3778H110.121V19.8034H114.141V22.3778H120.509V24.9749H114.141ZM130.657 22.1746L134.744 22.3327C136.16 22.4983 137.138 22.9349 137.68 23.6425C138.237 24.335 138.516 25.419 138.516 26.8944V27.3461C138.516 29.4839 138.275 30.9217 137.793 31.6594C137.311 32.3971 136.001 32.8639 133.864 33.0596L129.573 33.1499C127.284 33.1499 125.681 32.8563 124.763 32.2692C123.859 31.682 123.408 30.3195 123.408 28.1816V27.5493C123.408 26.2094 123.528 25.1555 123.769 24.3877C124.01 23.6199 124.537 23.0854 125.35 22.7843C126.178 22.4682 127.126 22.2875 128.195 22.2423C129.279 22.1972 130.1 22.1746 130.657 22.1746ZM130.725 30.2593H131.154C131.876 30.2593 132.456 30.2367 132.893 30.1915C133.344 30.1464 133.683 30.041 133.909 29.8754C134.15 29.6947 134.315 29.4764 134.406 29.2205C134.511 28.9495 134.564 28.543 134.564 28.001V27.2106C134.564 26.7288 134.519 26.375 134.428 26.1492C134.338 25.9083 134.165 25.6975 133.909 25.5169C133.653 25.3362 133.254 25.2158 132.712 25.1555C132.17 25.0953 131.553 25.0652 130.86 25.0652C130.168 25.0652 129.58 25.1028 129.099 25.1781C128.617 25.2383 128.225 25.3889 127.924 25.6298C127.638 25.8707 127.473 26.2169 127.427 26.6686C127.382 27.1052 127.36 27.4515 127.36 27.7074C127.36 28.1591 127.397 28.5806 127.473 28.9721C127.548 29.3484 127.714 29.6345 127.969 29.8302C128.225 30.0259 128.677 30.1464 129.324 30.1915C129.987 30.2367 130.454 30.2593 130.725 30.2593ZM145.315 24.0715C145.465 23.7253 145.638 23.4242 145.834 23.1682C146.03 22.9123 146.323 22.709 146.715 22.5585C147.106 22.4079 147.573 22.3025 148.115 22.2423C148.672 22.1821 149.319 22.152 150.057 22.152C152.345 22.152 153.994 22.4155 155.003 22.9424C156.011 23.4543 156.516 24.734 156.516 26.7815V28.0687C156.516 28.9269 156.463 29.6495 156.358 30.2367C156.252 30.8239 155.959 31.3809 155.477 31.9078C155.01 32.4197 154.318 32.7585 153.399 32.9241C152.496 33.0746 151.397 33.1499 150.102 33.1499C148.913 33.1499 147.912 33.0295 147.099 32.7886C146.301 32.5326 145.706 31.9831 145.315 31.14V37.5987H141.408V22.3778H145.315V24.0715ZM149.447 30.2367C150.757 30.2367 151.608 30.0786 151.999 29.7625C152.391 29.4312 152.586 28.6484 152.586 27.4138C152.586 26.5557 152.443 25.961 152.157 25.6298C151.871 25.2835 151.284 25.1104 150.396 25.1104L147.821 25.0652C147.264 25.0652 146.85 25.0953 146.579 25.1555C146.308 25.2158 146.067 25.3211 145.857 25.4717C145.661 25.6222 145.525 25.8481 145.45 26.1492C145.375 26.4503 145.337 26.8041 145.337 27.2106V27.6171C145.337 28.5354 145.48 29.1979 145.766 29.6044C146.052 29.9958 146.632 30.1915 147.505 30.1915L149.447 30.2367ZM170.105 32.9241V30.7561C169.864 31.7046 169.299 32.3444 168.411 32.6757C167.538 32.9918 166.499 33.1499 165.295 33.1499C163.337 33.1499 161.892 32.8112 160.959 32.1337C160.025 31.4411 159.558 30.1464 159.558 28.2494V22.3778H163.465V27.8881C163.465 28.8968 163.714 29.5442 164.211 29.8302C164.707 30.1012 165.513 30.2367 166.627 30.2367C167.846 30.2367 168.727 30.041 169.269 29.6495C169.826 29.243 170.105 28.4677 170.105 27.3235V27.0073V22.3778H174.012V32.9241H170.105ZM186.48 24.6587C186.269 24.5985 186.051 24.5608 185.825 24.5458C185.599 24.5307 185.328 24.5232 185.012 24.5232H183.318C183.062 24.5232 182.821 24.5307 182.596 24.5458C182.37 24.5458 182.129 24.5684 181.873 24.6135C181.632 24.6436 181.429 24.734 181.263 24.8845C181.113 25.0351 181.037 25.2233 181.037 25.4491C181.037 25.7502 181.158 25.9459 181.399 26.0363C181.64 26.1266 181.956 26.1718 182.347 26.1718L186.66 26.1943C188.347 26.1943 189.611 26.3675 190.454 26.7138C191.298 27.045 191.719 27.9107 191.719 29.3108C191.719 30.1991 191.599 30.8916 191.358 31.3884C191.117 31.8853 190.65 32.2692 189.958 32.5402C189.28 32.7961 188.467 32.9617 187.519 33.037C186.585 33.1123 185.569 33.1499 184.47 33.1499H182.821C180.955 33.1499 179.517 32.9542 178.508 32.5627C177.514 32.1713 177.018 31.2078 177.018 29.6721H181.105C181.105 30.1539 181.278 30.4475 181.624 30.5529C181.986 30.6432 182.294 30.6959 182.55 30.7109C182.821 30.726 183.138 30.7335 183.499 30.7335L185.351 30.7561C185.757 30.7561 186.126 30.7411 186.457 30.7109C186.788 30.6808 187.09 30.6131 187.361 30.5077C187.647 30.3873 187.79 30.1163 187.79 29.6947C187.79 29.3635 187.662 29.1527 187.406 29.0624C187.15 28.957 186.819 28.9043 186.412 28.9043H183.476L180.134 28.814C178.102 28.6333 177.085 27.5644 177.085 25.6072C177.085 24.3727 177.454 23.5371 178.192 23.1005C178.93 22.6639 179.991 22.3854 181.376 22.2649L185.193 22.1746C186.066 22.1746 186.721 22.1896 187.157 22.2197C187.594 22.2348 188.189 22.3101 188.941 22.4456C189.694 22.566 190.259 22.8521 190.635 23.3037C191.011 23.7403 191.2 24.3877 191.2 25.2459H187.09C187.044 24.9297 186.841 24.734 186.48 24.6587Z" fill="white"/>
<path d="M35.3039 4.8747V21.2909H18.9541V4.8747H35.3039ZM40.1588 0H14.0991V26.1656H40.1588V0Z" fill="#FFCF4E"/>
<path d="M18.9858 30.2847H0V15.0986H11.9289V23.2035H7.07396V19.9733H4.85496V25.41H14.1308V17.1087H18.9858V30.2847Z" fill="#FFCF4E"/>
<path d="M26.0409 47.7017H7.05518V32.5156H18.9841V40.619H14.1291V37.3903H11.9101V42.827H21.186V22.1669H26.0409V47.7017Z" fill="#FFCF4E"/>
<path d="M35.2969 30.2847H54.2812V15.0986H42.3523V23.2035H47.2072V19.9733H49.4262V25.41H40.1518V17.1087H35.2969V30.2847Z" fill="#FFCF4E"/>
<path d="M28.2417 47.7017H47.226V32.5156H35.2971V40.619H40.1521V37.3903H42.3711V42.827H33.0967V22.1669H28.2417V47.7017Z" fill="#FFCF4E"/>
</svg>
